<svg width="63" height="72" viewBox="0 0 63 72" fill="none" xmlns="http://www.w3.org/2000/svg">
<path d="M60.5462 32.9086L59.5788 29.5212C58.5732 26.0083 58.0645 22.3734 58.0645 18.7165C58.0645 14.8843 58.6219 11.0834 59.724 7.416L61.9479 0H0.761806L2.98568 7.416C4.08774 11.0834 4.64516 14.8843 4.64516 18.7165C4.64516 22.3723 4.13652 26.0071 3.13084 29.5212L2.16348 32.9086C0.728129 37.9335 0 43.1326 0 48.3608C0 54.9348 1.13923 61.4009 3.38632 67.5825L4.99355 72H57.7161L59.3234 67.5813C61.5704 61.4009 62.7097 54.9348 62.7097 48.3608C62.7097 43.1326 61.9815 37.9335 60.5462 32.9086ZM13.9355 46.4516C13.9355 45.1707 14.9772 44.129 16.2581 44.129C17.539 44.129 18.5806 45.1707 18.5806 46.4516C18.5806 47.7325 17.539 48.7742 16.2581 48.7742C14.9772 48.7742 13.9355 47.7325 13.9355 46.4516ZM20.9032 46.4516C20.9032 43.8898 18.8199 41.8064 16.2581 41.8064C13.7218 41.8064 11.6617 43.8503 11.621 46.3773C10.1508 44.863 9.29032 42.8121 9.29032 40.6812C9.29032 37.6664 10.937 35.0338 13.3746 33.6194L13.8356 35.2347C14.7623 38.4735 16.8817 41.177 19.8058 42.8481C22.1319 44.1778 23.8459 46.3181 24.6333 48.8787L27.5632 58.4001C27.4866 58.4361 27.4157 58.4791 27.3426 58.5197L17.4182 50.9307C19.4168 50.4139 20.9032 48.6105 20.9032 46.4516ZM46.4516 48.7742C45.1707 48.7742 44.129 47.7325 44.129 46.4516C44.129 45.1707 45.1707 44.129 46.4516 44.129C47.7325 44.129 48.7742 45.1707 48.7742 46.4516C48.7742 47.7325 47.7325 48.7742 46.4516 48.7742ZM51.0886 46.3773C51.048 43.8503 48.9879 41.8064 46.4516 41.8064C43.8898 41.8064 41.8064 43.8898 41.8064 46.4516C41.8064 48.6105 43.2929 50.4139 45.2915 50.9319L35.3671 58.5209C35.2939 58.4803 35.2219 58.4361 35.1465 58.4013L38.0764 48.8799C38.8637 46.3192 40.5778 44.1778 42.9039 42.8493C45.828 41.1794 47.9474 38.4747 48.8741 35.2359L49.3351 33.6205C51.7726 35.035 53.4194 37.6664 53.4194 40.6812C53.4194 42.8121 52.5588 44.863 51.0886 46.3773ZM33.6774 60.3871C34.3185 60.3871 34.8387 60.9074 34.8387 61.5484V69.6774H32.5161V60.3871H33.6774ZM46.6397 34.5983C45.8826 37.2495 44.1465 39.4641 41.7519 40.8321C38.9114 42.4544 36.8175 45.0697 35.856 48.197L32.8192 58.0645H32.5161V55.9126L34.0641 50.7542C35.2428 46.8221 37.4005 43.2093 40.3049 40.3049C41.2734 39.3364 41.8064 38.0497 41.8064 36.6805V36.4808C41.8064 35.1116 41.2734 33.8249 40.3049 32.8564L38.6628 34.4985C39.1924 35.028 39.4839 35.7329 39.4839 36.4808V36.6805C39.4839 37.4295 39.1924 38.1333 38.6628 38.6628C35.9744 41.3501 33.8806 44.597 32.5161 48.1366V41.8064C33.797 41.8064 34.8387 40.7648 34.8387 39.4839V32.5161H45.2543C45.9139 32.5161 46.5526 32.6032 47.167 32.7519L46.6397 34.5983ZM32.5185 39.4839H30.1935V37.1613H32.5173L32.5185 39.4839ZM32.5173 34.8387H30.1935V32.5161H32.5161L32.5173 34.8387ZM30.1935 41.8064V48.1366C28.829 44.597 26.7352 41.3489 24.0468 38.6628C23.5173 38.1333 23.2258 37.4284 23.2258 36.6805V36.4808C23.2258 35.7317 23.5173 35.028 24.0468 34.4985L22.4048 32.8564C21.4363 33.8249 20.9032 35.1116 20.9032 36.4808V36.6805C20.9032 38.0497 21.4363 39.3364 22.4048 40.3049C25.3092 43.2093 27.4668 46.8221 28.6455 50.7542L30.1935 55.9126V58.0645H29.8905L26.8537 48.197C25.8921 45.0708 23.7983 42.4556 20.9578 40.8321C18.5632 39.4641 16.8271 37.2495 16.0699 34.5983L15.5427 32.7519C16.157 32.6032 16.7957 32.5161 17.4554 32.5161H27.871V39.4839C27.871 40.7648 28.9126 41.8064 30.1935 41.8064ZM27.871 61.5484C27.871 60.9074 28.3912 60.3871 29.0323 60.3871H30.1935V69.6774H27.871V61.5484ZM57.1413 66.7881L56.0903 69.6774H37.1613V61.5484C37.1613 61.0943 37.0684 60.6623 36.9093 60.2652L51.6252 49.0123C54.2032 47.0415 55.7419 43.9258 55.7419 40.6812C55.7419 34.8991 51.0364 30.1935 45.2543 30.1935H32.5161H30.1935H17.4554C11.6733 30.1935 6.96774 34.8991 6.96774 40.6812C6.96774 43.9258 8.50645 47.0415 11.0845 49.0123L25.8004 60.2652C25.6413 60.6635 25.5484 61.0943 25.5484 61.5484V69.6774H6.61935L5.56839 66.7881C3.41419 60.8621 2.32258 54.6619 2.32258 48.3608C2.32258 43.3486 3.02168 38.3644 4.39781 33.5462L5.36516 30.1587C6.42774 26.4391 6.96774 22.5883 6.96774 18.7165C6.96774 14.659 6.37665 10.6316 5.21071 6.74826L3.88335 2.32258H58.8275L57.499 6.74942C56.333 10.6316 55.7419 14.659 55.7419 18.7165C55.7419 22.5883 56.2819 26.4379 57.3445 30.1587L58.3119 33.5462C59.688 38.3632 60.3871 43.3475 60.3871 48.3608C60.3871 54.6619 59.2955 60.8621 57.1413 66.7881Z" fill="url(#paint0_linear_1_445)"/>
<path d="M43.2227 21.3382L38.5776 27.1447L40.3922 28.5964L45.0374 22.7898L43.2227 21.3382Z" fill="url(#paint1_linear_1_445)"/>
<path d="M19.4889 21.3384L17.6743 22.79L22.3194 28.5966L24.134 27.145L19.4889 21.3384Z" fill="url(#paint2_linear_1_445)"/>
<path d="M31.355 16.2581C29.4342 16.2581 27.8711 17.8212 27.8711 19.7419C27.8711 21.6627 29.4342 23.2258 31.355 23.2258C33.2757 23.2258 34.8388 21.6627 34.8388 19.7419C34.8388 17.8212 33.2757 16.2581 31.355 16.2581ZM31.355 20.9032C30.7139 20.9032 30.1937 20.383 30.1937 19.7419C30.1937 19.1009 30.7139 18.5806 31.355 18.5806C31.996 18.5806 32.5163 19.1009 32.5163 19.7419C32.5163 20.383 31.996 20.9032 31.355 20.9032Z" fill="url(#paint3_linear_1_445)"/>
<defs>
<linearGradient id="paint0_linear_1_445" x1="31.3548" y1="0" x2="31.3548" y2="72" gradientUnits="userSpaceOnUse">
<stop stop-color="#A953DC"/>
<stop offset="1" stop-color="#ED95B4"/>
</linearGradient>
<linearGradient id="paint1_linear_1_445" x1="40.9002" y1="24.2414" x2="42.7148" y2="25.6931" gradientUnits="userSpaceOnUse">
<stop stop-color="#A953DC"/>
<stop offset="1" stop-color="#ED95B4"/>
</linearGradient>
<linearGradient id="paint2_linear_1_445" x1="18.5816" y1="22.0642" x2="23.2267" y2="27.8708" gradientUnits="userSpaceOnUse">
<stop stop-color="#A953DC"/>
<stop offset="1" stop-color="#ED95B4"/>
</linearGradient>
<linearGradient id="paint3_linear_1_445" x1="31.355" y1="16.2581" x2="31.355" y2="23.2258" gradientUnits="userSpaceOnUse">
<stop stop-color="#A953DC"/>
<stop offset="1" stop-color="#ED95B4"/>
</linearGradient>
</defs>
</svg>
