<svg width="53" height="72" viewBox="0 0 53 72" fill="none" xmlns="http://www.w3.org/2000/svg">
<path d="M33.1008 62.2408C31.1033 64.2383 28.4209 65.2655 25.6244 65.0373C20.8304 64.7519 16.9496 60.9281 16.6071 56.1341C16.493 54.3078 16.8354 52.4816 17.6915 50.8836C19.9743 46.5461 21.1728 41.4672 21.1728 36.1592V35.7026C21.1728 35.0748 20.6592 34.5612 20.0314 34.5612C19.4036 34.5612 18.89 35.0748 18.89 35.7026V36.1592C18.89 41.0673 17.8056 45.8038 15.694 49.7997C14.6667 51.7972 14.2101 54.0229 14.3814 56.3058C14.8379 62.1841 19.6319 66.9211 25.5673 67.3201H26.3663C29.5623 67.3201 32.5871 66.0645 34.8129 63.7817C35.2695 63.3251 35.2695 62.6403 34.8129 62.1837C34.2993 61.7842 33.5573 61.7842 33.1008 62.2408Z" fill="url(#paint0_linear_1_431)"/>
<path d="M46.798 23.4323H44.0586C43.4308 23.4323 42.9172 23.9459 42.9172 24.5737C42.9172 25.2015 43.4308 25.7151 44.0586 25.7151H46.798C48.6814 25.7151 50.2223 27.2561 50.2223 29.1394V42.8365C50.2223 44.7199 48.6814 46.2608 46.798 46.2608H40.2919C38.9222 42.8936 38.2373 39.5264 38.2373 36.2163V35.7597C38.2373 31.5935 39.1505 27.5985 40.9197 24.2313C42.3465 21.4919 42.9743 18.41 42.746 15.2711C42.1182 7.10988 35.4979 0.546676 27.3367 0.0325773C22.7139 -0.252779 18.3194 1.34522 14.9527 4.48414C11.5859 7.62307 9.70213 12.0176 9.70213 16.5833C9.70213 18.9803 10.2158 21.2631 11.186 23.4318H5.70713C2.56821 23.4318 0 26 0 29.139V42.8361C0 45.975 2.56821 48.5432 5.70713 48.5432H11.186C10.0446 51.0544 9.53091 53.8508 9.7592 56.7044C10.387 64.8656 17.0073 71.4288 25.1685 71.9429C25.5109 71.9429 25.9104 72 26.2528 72C30.4761 72 34.4711 70.402 37.5529 67.4914C40.8631 64.3524 42.8035 59.9579 42.8035 55.4488C42.8035 53.0518 42.2899 50.769 41.3197 48.6003H46.7985C49.9374 48.6003 52.5056 46.0321 52.5056 42.8932V29.1394C52.5056 26.0005 49.937 23.4323 46.798 23.4323ZM5.70668 46.2608C3.82332 46.2608 2.2824 44.7199 2.2824 42.8365V29.1394C2.2824 27.2561 3.82332 25.7151 5.70668 25.7151H12.2128C13.5825 29.0823 14.2674 32.4496 14.2674 35.7597V36.2163C14.2674 39.8118 13.5825 43.236 12.2699 46.2608H5.70668ZM36.012 65.7792C33.1014 68.5186 29.3347 69.8884 25.3392 69.603C18.2624 69.2035 12.5552 63.5534 12.0421 56.5341C11.8138 53.8518 12.3845 51.1694 13.6401 48.8295C13.7542 48.6012 13.8683 48.3158 14.0396 48.0305C14.0966 47.9734 14.1537 47.8593 14.1537 47.8022C15.7517 44.3209 16.6078 40.3829 16.6078 36.2163V35.7597C16.6078 31.8788 15.7517 27.998 14.0966 24.1738C14.0966 24.1167 14.0396 24.1167 14.0396 24.0596C13.8683 23.6601 13.6971 23.2035 13.4688 22.804C12.4416 20.8636 11.985 18.752 11.985 16.5833C11.985 12.5883 13.583 8.87864 16.4936 6.19628C19.176 3.68514 22.6003 2.31543 26.2533 2.31543C26.5386 2.31543 26.8811 2.31543 27.1664 2.3725C34.2433 2.772 39.9504 8.42207 40.4636 15.4414C40.6919 18.1237 40.1212 20.8061 38.8656 23.146C36.9822 26.8557 35.9549 31.2501 35.9549 35.7583V36.2149C35.9549 40.0957 36.811 43.9766 38.4661 47.8008C38.4661 47.8579 38.5232 47.8579 38.5232 47.915C38.6944 48.3145 38.9227 48.771 39.0939 49.1705C40.0641 51.111 40.5207 53.2226 40.5207 55.3913C40.5207 59.3863 38.9227 63.0969 36.012 65.7792Z" fill="url(#paint1_linear_1_431)"/>
<path d="M33.6718 36.2163V35.7597C33.6718 30.8516 34.7562 26.1151 36.8678 22.1192C37.8951 20.1217 38.3517 17.8959 38.1804 15.6131C37.7239 9.73473 32.9299 4.9978 27.0511 4.59876C20.0884 4.19926 14.2671 9.73518 14.2671 16.5837C14.2671 18.41 14.6666 20.1792 15.4656 21.8343C15.7509 22.405 16.4358 22.6333 17.0065 22.3479C17.5772 22.0626 17.8055 21.3777 17.5202 20.807C16.8924 19.4944 16.5499 18.0676 16.5499 16.5837C16.5499 11.0478 21.2869 6.53919 26.8794 6.88162C31.6734 7.16697 35.5542 10.9908 35.8967 15.7847C36.0108 17.611 35.6684 19.4373 34.8123 21.0353C32.5295 25.3727 31.331 30.4516 31.331 35.7597V36.2163C31.331 41.2386 32.5295 46.2608 34.9265 51.169C35.5542 52.4816 35.8967 53.9084 35.8967 55.3923C35.8967 56.02 36.4103 56.5337 37.0381 56.5337C37.6659 56.5337 38.1795 56.02 38.1795 55.3923C38.1795 53.566 37.78 51.7968 36.981 50.1988C34.8123 45.576 33.6709 40.8391 33.6709 36.2167L33.6718 36.2163Z" fill="url(#paint2_linear_1_431)"/>
<defs>
<linearGradient id="paint0_linear_1_431" x1="24.7508" y1="34.5612" x2="24.7508" y2="67.3201" gradientUnits="userSpaceOnUse">
<stop stop-color="#A953DC"/>
<stop offset="1" stop-color="#ED95B4"/>
</linearGradient>
<linearGradient id="paint1_linear_1_431" x1="26.2528" y1="0" x2="26.2528" y2="72" gradientUnits="userSpaceOnUse">
<stop stop-color="#A953DC"/>
<stop offset="1" stop-color="#ED95B4"/>
</linearGradient>
<linearGradient id="paint2_linear_1_431" x1="26.2413" y1="4.57841" x2="26.2413" y2="56.5337" gradientUnits="userSpaceOnUse">
<stop stop-color="#A953DC"/>
<stop offset="1" stop-color="#ED95B4"/>
</linearGradient>
</defs>
</svg>
