<svg width="75" height="72" viewBox="0 0 75 72" fill="none" xmlns="http://www.w3.org/2000/svg">
<path d="M72.1536 28.1968L65.1835 31.6487L58.094 31.7416C58.1603 31.3035 58.2002 30.8654 58.2002 30.414C58.2002 28.1437 57.3505 26.0594 55.9565 24.4795C55.1466 23.5634 54.1376 22.8199 53.0224 22.2889L58.094 18.9964L65.8075 20.4435C66.5244 20.5763 67.2015 20.1116 67.3343 19.3947C67.467 18.6777 67.0023 18.0007 66.2854 17.8679L59.4481 16.5801L60.9882 10.858C61.1741 10.1544 60.7625 9.43744 60.0589 9.25157C59.3552 9.06571 58.6383 9.47727 58.4524 10.1809L56.6734 16.7925L51.2301 20.3107C50.7787 18.5583 49.8627 16.9917 48.628 15.7437C46.8357 13.9514 44.3397 12.8362 41.6048 12.8362C39.4408 12.8362 37.436 13.5265 35.8031 14.7081C35.0596 15.2392 34.409 15.8764 33.8382 16.5934L31.2493 10.2606L32.4574 1.48494C32.5504 0.768024 32.0591 0.10421 31.3422 0.0112761C30.6253 -0.0816579 29.9615 0.409564 29.8686 1.12648L28.8728 8.30896L23.3632 5.13592C22.7392 4.77746 21.9293 4.98989 21.5709 5.61387C21.2124 6.23786 21.4248 7.04771 22.0488 7.40617L28.8596 11.336L31.3821 17.536C30.5191 17.2837 29.603 17.151 28.6737 17.151C25.9388 17.151 23.4428 18.2662 21.6505 20.0585C19.8582 21.8508 18.743 24.3467 18.743 27.0816C18.743 27.4401 18.7696 27.7986 18.7961 28.157L10.047 26.1523L5.71897 19.6071C5.32068 18.9964 4.51083 18.8371 3.90012 19.2353C3.28941 19.6336 3.13009 20.4435 3.52838 21.0542L7.36523 26.8559L2.18748 29.7369C1.55022 30.0821 1.32452 30.8919 1.68298 31.5159C2.02816 32.1532 2.83801 32.3789 3.462 32.0204L9.44961 28.7013L18.5837 30.7857C18.2385 31.1973 17.9332 31.6354 17.6676 32.1134C17.0968 33.1755 16.7781 34.3969 16.7781 35.6847C16.7781 37.2911 17.2826 38.778 18.1323 39.9995L9.05132 43.4248L1.82902 40.3579C1.1652 40.0791 0.395178 40.3845 0.1031 41.0483C-0.175702 41.7121 0.129652 42.4821 0.793467 42.7742L7.41834 45.5888L5.40034 52.3331C5.18792 53.0235 5.58621 53.7537 6.27658 53.9661C6.96694 54.1786 7.69714 53.7803 7.90956 53.0899L10.0736 45.841L17.2561 43.1327C16.9374 44.1151 16.7516 45.1639 16.7516 46.2393C16.7516 48.9742 17.8668 51.4702 19.6591 53.2625C20.9469 54.5503 22.5799 55.4796 24.412 55.9045L21.77 59.1041H15.9152C15.185 59.1041 14.6008 59.6882 14.6008 60.4184C14.6008 61.1486 15.185 61.7328 15.9152 61.7328H21.1327L21.3717 67.8133C21.3983 68.5435 22.009 69.1011 22.7392 69.0746C23.4694 69.048 24.027 68.4373 24.0004 67.7071L23.7216 60.8698L26.8814 57.0462C27.3726 57.71 27.97 58.2942 28.6604 58.7722C29.8818 59.6218 31.3688 60.1131 32.9619 60.1131C34.5684 60.1131 36.0553 59.6086 37.2767 58.7589C37.7547 58.427 38.1928 58.042 38.5778 57.6038L40.5294 62.9807L37.3697 70.1632C37.0776 70.827 37.3829 71.5971 38.0468 71.8891C38.7106 72.1812 39.4806 71.8759 39.7727 71.212L42.1757 65.7289L45.1761 70.2163C45.5744 70.8138 46.3975 70.9863 46.995 70.5748C47.5924 70.1765 47.765 69.3534 47.3534 68.7559L43.105 62.4099L40.8082 56.0638C42.0562 55.9177 43.2378 55.5327 44.2866 54.9619C45.4682 55.7319 46.8888 56.1833 48.4023 56.1833C50.4999 56.1833 52.3984 55.3336 53.7659 53.9661C55.1333 52.5987 55.9963 50.6869 55.983 48.6025C55.983 48.1113 55.9299 47.6466 55.8503 47.1819L60.9085 50.1293L63.0858 57.6702C63.285 58.3606 64.0152 58.7722 64.7056 58.573C65.3959 58.3739 65.8075 57.6437 65.6083 56.9533L63.5505 49.7974L69.8302 45.3631C70.4276 44.9383 70.5604 44.1284 70.1488 43.531C69.7373 42.9335 68.9141 42.8008 68.3167 43.2123L61.9706 47.6997L56.6468 44.5931C57.0982 44.0753 57.5098 43.5044 57.855 42.907C58.6648 41.4731 59.1295 39.8003 59.1295 38.0346C59.1295 36.7335 58.8773 35.4988 58.4259 34.357L64.9976 34.2774L70.7463 39.6277C71.2773 40.119 72.1004 40.0924 72.6049 39.5614C73.0962 39.0303 73.0696 38.2072 72.5386 37.7027L67.7989 33.2949L73.3351 30.56C73.9857 30.2414 74.2512 29.4581 73.9326 28.8076C73.5874 28.1437 72.8041 27.8649 72.1536 28.1968ZM56.5008 38.0346C56.5008 39.3357 56.1556 40.5571 55.5582 41.6192C54.9608 42.6813 54.1111 43.5708 53.0755 44.2213L51.9736 44.9117L52.664 46.0136C53.1419 46.7837 53.4074 47.6599 53.4074 48.6158C53.4074 49.9965 52.8498 51.2312 51.947 52.134C51.0442 53.0368 49.8096 53.5944 48.4288 53.5944C47.2074 53.5944 46.1055 53.1563 45.2292 52.4261L44.4725 51.7888L43.6493 52.3331C42.4943 53.1032 41.1003 53.5546 39.6001 53.5546C39.3744 53.5546 39.1487 53.5413 38.9097 53.5147L37.9273 53.4218L37.5688 54.3379C37.2103 55.2539 36.5731 56.0505 35.7765 56.6081C34.9799 57.1657 34.0108 57.4844 32.9487 57.4844C31.8998 57.4844 30.9307 57.1657 30.1341 56.6081C29.3375 56.0505 28.7002 55.2672 28.3418 54.3512L27.9966 53.4749L27.054 53.528C26.9212 53.5413 26.8017 53.5413 26.669 53.5413C24.651 53.5413 22.8321 52.7314 21.5045 51.4038C20.1769 50.0762 19.367 48.2573 19.367 46.2393C19.367 44.3541 20.0706 42.6415 21.2522 41.3537L22.155 40.3447L21.1195 39.4684C20.0441 38.5524 19.367 37.1982 19.367 35.6847C19.367 34.835 19.5794 34.0517 19.9512 33.348C20.3229 32.6577 20.8539 32.0602 21.5045 31.6089L22.394 30.9981L21.9559 30.0157C21.5576 29.1129 21.3452 28.1305 21.3452 27.0816C21.3452 25.0636 22.155 23.2448 23.4827 21.9172C24.8103 20.5895 26.6291 19.7797 28.6471 19.7797C30.1606 19.7797 31.5414 20.2311 32.7097 21.0144L34.117 21.957L34.6746 20.3638C35.1791 18.9433 36.0951 17.7218 37.3033 16.8456C38.5114 15.9827 39.9718 15.4649 41.565 15.4649C43.583 15.4649 45.4018 16.2747 46.7294 17.6024C48.0571 18.93 48.8669 20.7356 48.8669 22.7536V22.7934L48.8404 23.975L50.0087 24.121C51.562 24.3202 52.9428 25.0769 53.9252 26.2054C54.9209 27.3206 55.5184 28.781 55.5184 30.4007C55.5184 31.2238 55.359 32.0071 55.0802 32.7241L54.828 33.3613L55.213 33.9322C56.0494 35.1138 56.5008 36.5078 56.5008 38.0346Z" fill="url(#paint0_linear_1_455)"/>
<path d="M28.7133 30.6795C29.7489 30.6795 30.7048 30.2547 31.3819 29.5776C32.059 28.9005 32.4838 27.9446 32.4838 26.9091C32.4838 25.8735 32.059 24.9176 31.3819 24.2405C30.7048 23.5634 29.7489 23.1386 28.7133 23.1386C27.6778 23.1386 26.7219 23.5634 26.0448 24.2405C25.3677 24.9176 24.9429 25.8735 24.9429 26.9091C24.9429 27.9446 25.3677 28.9005 26.0448 29.5776C26.7219 30.2547 27.6778 30.6795 28.7133 30.6795ZM27.9035 26.0992C28.1159 25.8868 28.3947 25.7673 28.7133 25.7673C29.032 25.7673 29.3108 25.9001 29.5232 26.0992C29.7356 26.3116 29.8551 26.5904 29.8551 26.9091C29.8551 27.2277 29.7223 27.5065 29.5232 27.7189C29.3108 27.9313 29.032 28.0508 28.7133 28.0508C28.3947 28.0508 28.1159 27.918 27.9035 27.7189C27.6911 27.5065 27.5716 27.2277 27.5716 26.9091C27.5583 26.5904 27.6911 26.3116 27.9035 26.0992Z" fill="url(#paint1_linear_1_455)"/>
<path d="M48.2031 33.1356C49.2386 33.1356 50.1945 32.7108 50.8716 32.0337C51.5487 31.3566 51.9736 30.4007 51.9736 29.3652C51.9736 28.3296 51.5487 27.3737 50.8716 26.6966C50.1945 26.0195 49.2386 25.5947 48.2031 25.5947C47.1675 25.5947 46.2116 26.0195 45.5345 26.6966C44.8575 27.3737 44.4326 28.3296 44.4326 29.3652C44.4326 30.4007 44.8575 31.3566 45.5345 32.0337C46.2249 32.7108 47.1675 33.1356 48.2031 33.1356ZM49.3581 29.3652C49.3581 29.6838 49.2386 29.9626 49.0262 30.175C48.8138 30.3874 48.535 30.5069 48.2164 30.5069C47.8977 30.5069 47.6189 30.3742 47.4065 30.175C47.1941 29.9626 47.0746 29.6838 47.0746 29.3652C47.0746 29.0465 47.2074 28.7677 47.4065 28.5553C47.6189 28.3429 47.8977 28.2234 48.2164 28.2234C48.535 28.2234 48.8138 28.3562 49.0262 28.5553C49.2254 28.7677 49.3581 29.0465 49.3581 29.3652Z" fill="url(#paint2_linear_1_455)"/>
<path d="M45.7469 40.4243C44.3529 40.4243 43.0651 40.9952 42.1491 41.9113C41.233 42.8273 40.6621 44.1018 40.6621 45.5091C40.6621 46.9031 41.233 48.191 42.1491 49.107C43.0651 50.0231 44.3396 50.594 45.7469 50.594C47.1409 50.594 48.4287 50.0231 49.3448 49.107C50.2609 48.191 50.8318 46.9164 50.8318 45.5091C50.8318 44.1151 50.2609 42.8273 49.3448 41.9113C48.4287 40.9952 47.1542 40.4243 45.7469 40.4243ZM47.4861 47.2483C47.0347 47.6997 46.424 47.9653 45.7469 47.9653C45.0698 47.9653 44.4591 47.6864 44.0077 47.2483C43.5563 46.7969 43.2908 46.1862 43.2908 45.5091C43.2908 44.832 43.5696 44.2213 44.0077 43.7699C44.4591 43.3186 45.0698 43.053 45.7469 43.053C46.424 43.053 47.0347 43.3318 47.4861 43.7699C47.9375 44.2213 48.203 44.832 48.203 45.5091C48.2163 46.1995 47.9375 46.7969 47.4861 47.2483Z" fill="url(#paint3_linear_1_455)"/>
<path d="M31.4353 46.8102C31.4353 45.5357 30.9175 44.3674 30.0811 43.531C29.2447 42.6946 28.0764 42.1768 26.8019 42.1768C25.5274 42.1768 24.359 42.6946 23.5226 43.531C22.6862 44.3674 22.1685 45.5357 22.1685 46.8102C22.1685 48.0847 22.6862 49.253 23.5226 50.0895C24.359 50.9259 25.5274 51.4436 26.8019 51.4436C28.0764 51.4436 29.2447 50.9259 30.0811 50.0895C30.9043 49.253 31.4353 48.0847 31.4353 46.8102ZM24.7839 46.8102C24.7839 46.2526 25.0096 45.7481 25.368 45.3896C25.7398 45.0179 26.231 44.8055 26.7886 44.8055C27.3462 44.8055 27.8374 45.0312 28.2092 45.3896C28.5809 45.7614 28.7933 46.2526 28.7933 46.8102C28.7933 47.3678 28.5676 47.859 28.2092 48.2308C27.8374 48.6025 27.3462 48.8149 26.7886 48.8149C26.231 48.8149 25.7398 48.5892 25.368 48.2308C24.9963 47.859 24.7839 47.3678 24.7839 46.8102Z" fill="url(#paint4_linear_1_455)"/>
<path d="M40.596 31.7151C39.4675 30.5733 37.8744 29.8697 36.1484 29.8697C34.4092 29.8697 32.8294 30.5733 31.7009 31.7151C30.5591 32.8435 29.8555 34.4234 29.8555 36.1626C29.8555 37.9018 30.5591 39.4817 31.7009 40.6102C32.8294 41.7519 34.4225 42.4556 36.1484 42.4556C37.8876 42.4556 39.4675 41.7519 40.596 40.6102C41.7378 39.4817 42.4414 37.8885 42.4414 36.1626C42.4414 34.4234 41.7378 32.8435 40.596 31.7151ZM36.1484 39.8269C35.1262 39.8269 34.2234 39.4153 33.5596 38.7515C32.8957 38.0877 32.4842 37.1716 32.4842 36.1626C32.4842 35.1403 32.8957 34.2376 33.5596 33.5737C34.2234 32.9099 35.1394 32.4984 36.1484 32.4984C37.1707 32.4984 38.0735 32.9099 38.7373 33.5737C39.4011 34.2376 39.8127 35.1536 39.8127 36.1626C39.8127 37.1849 39.4011 38.0877 38.7373 38.7515C38.0735 39.4153 37.1707 39.8269 36.1484 39.8269Z" fill="url(#paint5_linear_1_455)"/>
<defs>
<linearGradient id="paint0_linear_1_455" x1="37.0336" y1="0" x2="37.0336" y2="72" gradientUnits="userSpaceOnUse">
<stop stop-color="#A953DC"/>
<stop offset="1" stop-color="#ED95B4"/>
</linearGradient>
<linearGradient id="paint1_linear_1_455" x1="28.7133" y1="23.1386" x2="28.7133" y2="30.6795" gradientUnits="userSpaceOnUse">
<stop stop-color="#A953DC"/>
<stop offset="1" stop-color="#ED95B4"/>
</linearGradient>
<linearGradient id="paint2_linear_1_455" x1="48.2031" y1="25.5947" x2="48.2031" y2="33.1356" gradientUnits="userSpaceOnUse">
<stop stop-color="#A953DC"/>
<stop offset="1" stop-color="#ED95B4"/>
</linearGradient>
<linearGradient id="paint3_linear_1_455" x1="45.7469" y1="40.4243" x2="45.7469" y2="50.594" gradientUnits="userSpaceOnUse">
<stop stop-color="#A953DC"/>
<stop offset="1" stop-color="#ED95B4"/>
</linearGradient>
<linearGradient id="paint4_linear_1_455" x1="26.8019" y1="42.1768" x2="26.8019" y2="51.4436" gradientUnits="userSpaceOnUse">
<stop stop-color="#A953DC"/>
<stop offset="1" stop-color="#ED95B4"/>
</linearGradient>
<linearGradient id="paint5_linear_1_455" x1="36.1484" y1="29.8697" x2="36.1484" y2="42.4556" gradientUnits="userSpaceOnUse">
<stop stop-color="#A953DC"/>
<stop offset="1" stop-color="#ED95B4"/>
</linearGradient>
</defs>
</svg>
