<svg width="362" height="678" viewBox="0 0 362 678" fill="none" xmlns="http://www.w3.org/2000/svg">
<path d="M541.814 367.053C534.806 348.25 524.394 331.248 512.38 315.245C499.966 299.043 485.75 284.441 470.933 270.439C448.707 249.636 426.882 228.633 407.06 205.63C394.846 191.628 383.633 176.826 374.222 160.824C365.012 144.821 356.802 128.219 348.793 110.217C341.585 94.8145 334.777 77.8121 324.766 62.4099C317.157 50.8083 308.947 40.0068 297.935 31.4056C281.116 18.2037 261.893 9.40249 241.27 4.20176C214.039 -2.59919 186.808 -1.19899 160.577 8.80242C142.156 15.8034 125.738 26.2048 110.32 38.2065C100.308 46.0076 91.0979 55.2089 81.6871 63.8101C69.0727 75.2117 57.4594 87.6135 47.8484 101.615C30.028 127.819 18.8151 156.623 11.4066 187.227C4.59884 215.631 0.994717 244.435 0.193799 273.64C-1.20781 320.846 4.99931 366.853 18.6149 412.059C22.4193 424.461 26.4238 436.862 31.4296 448.664C40.2397 470.067 50.8518 490.67 63.4663 510.073C73.2775 525.275 83.8896 539.677 95.3027 553.479C122.334 586.283 153.169 614.487 189.41 636.89C213.438 651.692 239.067 663.094 266.699 669.895C295.732 677.096 325.366 679.296 355.2 677.296C380.229 675.696 404.857 671.095 428.484 662.094C446.705 655.093 463.324 645.692 478.542 633.49C520.189 600.485 546.019 557.879 555.83 505.872C564.84 458.465 558.834 412.059 541.814 367.053Z" fill="#FEF7F1"/>
<path d="M202.893 484.24C191.393 463.14 195.493 427.24 193.593 412.34C191.693 397.44 199.593 381.94 213.693 394.24C227.793 406.44 237.893 432.14 242.593 450.24C247.293 468.44 223.193 521.74 202.893 484.24Z" fill="#F1C0C0"/>
<path d="M255.493 115.04C241.493 94.3398 205.393 84.2398 184.193 98.6398C162.993 113.04 156.893 161.64 184.193 172.24C211.493 182.84 233.493 179.74 243.393 161.14C253.193 142.64 267.593 133.04 255.493 115.04Z" fill="#ED95B4"/>
<path d="M105.293 262.74C90.793 262.74 55.993 303.44 42.693 323.74C29.393 344.04 22.493 380.34 42.693 405.14C62.893 429.94 111.893 435.64 120.393 405.14C128.893 374.64 118.093 331.14 117.593 306.74C116.993 282.54 117.293 262.74 105.293 262.74Z" fill="#A953DC"/>
<path d="M184.193 355.94C177.293 356.74 172.993 350.24 172.793 344.14C172.593 338.04 189.493 325.14 196.093 312.14C202.593 299.04 209.293 289.64 208.993 287.84C208.693 286.04 200.993 277.64 197.993 279.64C194.893 281.64 244.093 312.54 253.293 317.84C262.493 323.14 289.793 320.04 284.893 316.84C279.993 313.54 240.993 325.84 222.293 327.24C203.493 328.64 187.393 330.94 180.293 334.54C173.193 338.24 165.193 350.34 163.193 355.54C161.193 360.74 165.493 372.84 166.893 377.94C168.293 383.04 165.793 393.64 171.293 393.54C176.793 393.44 174.793 380.84 174.593 377.64C174.493 374.44 175.993 370.34 174.393 369.84C172.793 369.34 174.493 376.64 177.893 378.84C181.393 381.04 190.793 387.44 192.293 388.74C193.793 390.04 195.393 393.54 195.993 390.74C196.593 387.94 193.993 378.64 191.193 375.74C188.493 372.84 186.793 369.54 186.793 365.64C186.793 361.74 186.293 357.94 186.793 356.14C187.293 354.34 205.093 354.74 227.493 355.94C249.893 357.14 273.993 353.04 292.393 350.84C310.793 348.64 312.993 342.84 312.793 331.44C312.593 320.04 291.993 297.54 263.793 272.44C235.593 247.34 221.193 225.54 212.193 220.44C203.193 215.34 194.193 212.24 190.193 204.94C186.093 197.64 187.493 174.74 187.493 174.74C189.893 168.84 197.293 183.54 185.293 184.14C173.293 184.74 140.993 193.14 141.393 188.24C141.793 183.34 141.793 163.34 141.793 143.14C141.793 122.94 144.593 115.74 147.693 117.44C151.193 119.24 148.093 125.04 128.293 125.04C121.993 125.04 115.193 122.64 113.593 122.14C111.993 121.74 115.793 100.14 126.493 88.4399C137.093 76.8399 178.093 62.5399 210.193 94.5399C242.193 126.54 239.793 175.94 233.093 180.64C226.393 185.34 196.593 183.54 196.593 183.54" stroke="#262360" stroke-width="1.5" stroke-miterlimit="10" stroke-linecap="round" stroke-linejoin="round"/>
<path d="M116.193 122.84C116.193 122.84 114.293 127.64 115.093 129.84C115.793 132.04 118.293 134.84 117.793 137.44C117.293 140.04 106.493 150.24 105.993 151.74C105.193 153.84 108.893 156.04 111.193 156.74C113.493 157.44 113.093 158.24 113.393 159.64C113.693 160.94 111.993 163.24 111.893 165.14C111.793 166.94 113.893 169.54 118.093 170.54C122.193 171.54 123.993 171.84 123.693 170.84C123.393 169.84 114.093 164.14 112.493 164.54C110.893 164.94 111.793 168.24 115.393 169.54C118.993 170.84 118.993 170.84 118.993 170.84C118.993 170.84 114.293 172.04 114.293 174.14C114.293 176.24 116.893 177.04 120.093 175.14C123.293 173.34 124.693 172.34 124.193 171.84C122.893 170.64 117.793 175.54 118.593 176.74C119.393 177.94 119.593 179.84 119.593 182.04C119.593 184.24 120.393 190.04 126.293 190.04C132.093 190.04 141.693 185.84 141.693 185.84" stroke="#262360" stroke-width="1.5" stroke-miterlimit="10" stroke-linecap="round" stroke-linejoin="round"/>
<path d="M145.393 189.94C145.393 189.94 150.693 207.24 148.493 209.74C146.293 212.14 133.493 213.44 126.893 217.34C120.193 221.24 117.093 233.64 112.593 237.74C108.093 241.84 89.4934 256.94 84.9934 272.04C80.4934 287.14 87.8934 295.04 93.6934 300.24C99.4934 305.44 94.0934 313.14 95.6934 314.34C97.2934 315.54 101.993 314.44 100.893 316.24C99.7934 318.04 81.8934 325.74 80.9934 332.74C80.1934 339.64 85.8934 348.84 86.1934 350.04C86.4934 351.24 72.5934 348.14 70.9934 334.84C69.7934 325.04 72.9934 320.54 78.7934 314.54C84.4934 308.54 89.6934 298.04 89.6934 298.04" stroke="#262360" stroke-width="1.5" stroke-miterlimit="10" stroke-linecap="round" stroke-linejoin="round"/>
<path d="M94.7933 447.44C92.7933 454.84 104.693 504.54 108.293 504.54C111.993 504.54 123.093 446.44 146.893 431.14C171.893 414.94 192.793 416.64 211.993 436.24" stroke="#262360" stroke-width="1.5" stroke-miterlimit="10" stroke-linecap="round" stroke-linejoin="round"/>
<path d="M100.893 316.24C100.893 316.24 119.293 316.34 118.893 319.74C118.493 323.14 115.893 325.14 111.693 325.44C107.493 325.74 102.393 325.84 103.393 324.04C104.393 322.24 109.393 327.94 116.593 332.04C123.793 336.14 136.193 339.34 138.493 341.34C140.793 343.24 140.493 346.14 133.693 346.14C133.693 346.14 142.793 347.54 143.093 350.24C143.393 352.84 143.193 354.64 133.293 353.84C123.393 353.04 119.593 352.04 119.593 352.04C119.593 352.04 134.193 354.64 136.193 355.74C138.193 356.84 139.093 362.04 132.493 362.14C125.993 362.24 116.393 359.84 116.393 359.84C116.393 359.84 124.393 360.84 124.293 363.74C124.193 366.64 121.993 367.44 113.193 365.64C104.393 363.84 95.6932 359.84 92.2932 357.34C88.8932 354.94 86.8932 351.84 86.8932 351.84C86.8932 351.84 74.3932 360.34 67.4932 385.14C60.6932 409.94 68.2932 429.44 80.5932 439.54C92.7932 449.64 101.693 446.34 110.993 459.64C117.293 468.64 115.893 468.54 119.493 474.84" stroke="#262360" stroke-width="1.5" stroke-miterlimit="10" stroke-linecap="round" stroke-linejoin="round"/>
<path d="M194.693 391.64C194.693 391.64 205.693 403.84 212.993 422.44C220.593 441.74 222.193 464.24 210.493 489.54" stroke="#262360" stroke-width="1.5" stroke-miterlimit="10" stroke-linecap="round" stroke-linejoin="round"/>
<path d="M126.893 217.34C126.893 217.34 112.593 253.24 136.793 255.84C160.993 258.44 192.293 215.54 206.293 217.34" stroke="#262360" stroke-width="1.5" stroke-miterlimit="10" stroke-linecap="round" stroke-linejoin="round"/>
</svg>
