<svg width="72" height="72" viewBox="0 0 72 72" fill="none" xmlns="http://www.w3.org/2000/svg">
<path d="M10.2462 25.0421H4.15314C3.57893 25.0421 3.10042 24.6274 3.03662 24.0532L0.00604516 1.33982C-0.0258556 1.02081 0.0698476 0.7018 0.261252 0.446594C0.484557 0.191388 0.803564 0.0637856 1.12257 0.0637856H7.18371C7.75793 0.0637856 8.23644 0.478495 8.30024 1.05271L11.2989 23.5427C11.3627 23.6703 11.3627 23.7979 11.3627 23.9574C11.3946 24.5317 10.8842 25.0421 10.2462 25.0421ZM5.17397 22.7452H8.93826L6.22669 2.29684H2.4305L5.17397 22.7452Z" fill="url(#paint0_linear_1_468)"/>
<path d="M67.827 25.0421H61.7658C61.4468 25.0421 61.1278 24.9145 60.9045 24.6593C60.6812 24.4041 60.5855 24.0851 60.6493 23.766L63.6799 1.05271C63.7437 0.478495 64.2222 0.0637856 64.7964 0.0637856H70.8575C71.1765 0.0637856 71.4955 0.191388 71.7189 0.446594C71.9422 0.7018 72.0379 1.02081 71.9741 1.33982L68.9435 24.0532C68.8478 24.5955 68.3693 25.0421 67.827 25.0421ZM63.0418 22.7452H66.8061L69.5177 2.29684H65.7534L63.0418 22.7452Z" fill="url(#paint1_linear_1_468)"/>
<path d="M35.9898 67.4701C27.6956 67.4701 21.2197 63.323 21.2197 57.9956C21.2197 52.6681 27.6956 48.521 35.9898 48.521C44.284 48.521 50.7598 52.6681 50.7598 57.9956C50.7598 63.323 44.284 67.4701 35.9898 67.4701ZM35.9898 50.786C29.2268 50.786 23.4847 54.0718 23.4847 57.9956C23.4847 61.9194 29.1949 65.2051 35.9898 65.2051C42.7846 65.2051 48.4949 61.9194 48.4949 57.9956C48.4949 54.0718 42.7527 50.786 35.9898 50.786Z" fill="url(#paint2_linear_1_468)"/>
<path d="M36.7555 72C36.5322 72 36.3089 71.9681 36.0537 71.9362C34.0759 71.6172 32.5765 69.767 32.5765 67.6615V61.058C32.5765 58.6655 30.822 56.6238 28.4294 56.2091C11.9686 53.4338 0.00585938 41.7581 0.00585938 28.4236C0.00585938 12.7603 16.1476 0 35.9899 0C55.8322 0 71.974 12.7603 71.974 28.4236C71.974 41.4391 60.8406 52.7319 44.9221 55.9539C42.5934 56.4324 40.9026 58.4422 40.9026 60.7709V67.821C40.9026 68.9375 40.456 69.9902 39.6904 70.7559C38.8929 71.5853 37.8721 72 36.7555 72ZM35.9899 2.29686C17.3918 2.29686 2.27081 14.0363 2.27081 28.4236C2.27081 40.6416 13.4361 51.3602 28.8122 53.9442C32.3213 54.5503 34.8734 57.5171 34.8734 61.0261V67.6296C34.8734 68.6504 35.5433 69.5117 36.4365 69.6712C36.5322 69.7031 36.6598 69.7031 36.7555 69.7031C37.2659 69.7031 37.7445 69.5117 38.0954 69.1608C38.4463 68.8099 38.6377 68.3314 38.6377 67.821V60.7709C38.6377 57.3576 41.094 54.3908 44.4755 53.7209C59.3413 50.7222 69.709 40.3226 69.709 28.4236C69.709 14.0363 54.5881 2.29686 35.9899 2.29686Z" fill="url(#paint3_linear_1_468)"/>
<path d="M35.9899 50.786C23.1658 50.786 11.8729 43.9592 8.55527 34.1976C8.42767 33.8467 8.49147 33.432 8.71477 33.1449C8.93808 32.8578 9.28899 32.6664 9.6718 32.6983C10.9797 32.7621 12.2239 32.6026 13.3723 32.2198L15.063 31.6455C17.8065 30.7204 20.8371 30.8161 23.5167 31.9008C25.7179 32.7621 28.1742 32.8578 30.4073 32.0922L32.098 31.5179C34.6182 30.6885 37.3617 30.6885 39.8499 31.5179L41.8916 32.1879C43.9332 32.8578 46.1663 32.8578 48.2079 32.1879L50.2496 31.5179C52.7697 30.6885 55.5132 30.6885 58.0014 31.5179L59.6922 32.0922C60.4578 32.3474 61.351 32.5069 62.3718 32.5388C62.7228 32.5707 63.0418 32.7302 63.2651 33.0173C63.4565 33.3044 63.5203 33.6872 63.3927 34.0062C60.2026 43.9273 48.9097 50.786 35.9899 50.786ZM11.2987 34.9632C14.9035 43.0022 24.7928 48.521 35.9899 48.521C47.3466 48.521 57.2996 42.9065 60.7768 34.708C60.1388 34.6123 59.5646 34.4847 59.0223 34.2933L57.3315 33.7191C55.2899 33.0492 53.0568 33.0492 51.0152 33.7191L48.9735 34.389C46.4534 35.2184 43.7099 35.2184 41.2216 34.389L39.18 33.7191C37.1383 33.0492 34.9053 33.0492 32.8636 33.7191L31.1729 34.2933C28.4294 35.2184 25.3989 35.1227 22.7192 34.0381C20.5181 33.1768 18.0617 33.0811 15.8286 33.8467L14.1379 34.4209C13.2128 34.708 12.2877 34.8994 11.2987 34.9632Z" fill="url(#paint4_linear_1_468)"/>
<path d="M45.0817 35.027C43.7738 35.027 42.4658 34.8037 41.1898 34.389L39.1482 33.7191C37.1065 33.0492 34.8735 33.0492 32.8318 33.7191L31.1411 34.2933C28.3976 35.2184 25.3989 35.1227 22.6874 34.0381C20.4862 33.1768 18.0299 33.0811 15.7968 33.8467L14.1061 34.4209C12.7024 34.8994 11.1393 35.0908 9.57615 34.9951C9.09764 34.9632 8.71483 34.6761 8.55533 34.2295C7.88541 32.2836 7.56641 30.3376 7.56641 28.4555C7.56641 16.1418 20.3267 6.09304 35.99 6.09304C51.6532 6.09304 64.4136 16.1099 64.4136 28.4555C64.4136 30.3057 64.0945 32.1879 63.4565 34.1019C63.297 34.5804 62.8185 34.8994 62.3081 34.8675C61.064 34.8037 60.0113 34.6123 59.0223 34.2933L57.3316 33.7191C55.2899 33.0492 53.0569 33.0492 51.0152 33.7191L48.9736 34.389C47.6976 34.8356 46.3896 35.027 45.0817 35.027ZM35.99 30.9437C37.2979 30.9437 38.6058 31.167 39.8819 31.5817L41.9235 32.2517C43.9652 32.9216 46.1982 32.9216 48.2399 32.2517L50.2815 31.5817C52.8017 30.7523 55.5451 30.7523 58.0334 31.5817L59.7241 32.156C60.2665 32.3474 60.8726 32.475 61.5425 32.5388C61.9253 31.167 62.1167 29.7953 62.1167 28.4555C62.1167 17.3859 50.3772 8.38989 35.99 8.38989C21.6027 8.38989 9.86326 17.3859 9.86326 28.4555C9.86326 29.8591 10.0866 31.2946 10.5013 32.7302C11.5221 32.6983 12.511 32.5388 13.4042 32.2517L15.095 31.6774C17.8384 30.7523 20.869 30.848 23.5487 31.9326C25.7498 32.794 28.2062 32.8897 30.4392 32.1241L32.13 31.5498C33.3741 31.1351 34.682 30.9437 35.99 30.9437Z" fill="url(#paint5_linear_1_468)"/>
<path d="M48.1122 17.4497C47.9208 17.4497 47.7294 17.3859 47.538 17.2902C47.3466 17.1626 47.1552 17.0669 46.9319 16.9393C46.3896 16.6522 46.1663 15.9504 46.4534 15.4081C46.7405 14.8657 47.4423 14.6424 47.9846 14.9295C48.2398 15.0571 48.4631 15.1848 48.6864 15.3124C49.2288 15.6314 49.3883 16.3332 49.0693 16.8755C48.8779 17.2583 48.495 17.4497 48.1122 17.4497Z" fill="url(#paint6_linear_1_468)"/>
<path d="M43.0721 15.4081C42.9764 15.4081 42.8807 15.4081 42.785 15.3762C42.3065 15.2486 41.8279 15.121 41.3175 15.0253C40.7114 14.8977 40.2967 14.2915 40.4562 13.6854C40.5838 13.0793 41.1899 12.6646 41.796 12.8241C42.3384 12.9517 42.8488 13.0793 43.3911 13.2069C43.9972 13.3664 44.3481 14.0044 44.1886 14.6106C44.0291 15.0891 43.5506 15.4081 43.0721 15.4081Z" fill="url(#paint7_linear_1_468)"/>
<path d="M29.1315 15.5676C28.653 15.5676 28.2064 15.2805 28.0469 14.802C27.8555 14.1958 28.1745 13.5578 28.7487 13.3664C29.2591 13.175 29.8014 13.0155 30.3437 12.8879C30.9498 12.7284 31.5559 13.0793 31.7154 13.7173C31.8749 14.3235 31.524 14.9615 30.886 15.0891C30.4075 15.2167 29.929 15.3443 29.4505 15.5038C29.3867 15.5357 29.2591 15.5676 29.1315 15.5676Z" fill="url(#paint8_linear_1_468)"/>
<path d="M36.8517 14.451C36.8198 14.451 36.8198 14.451 36.8198 14.451C36.3093 14.4191 35.8308 14.4191 35.3204 14.451C34.7143 14.4829 34.172 13.9725 34.1401 13.3664C34.1082 12.7284 34.6186 12.218 35.2566 12.1861C35.7989 12.1542 36.3412 12.1861 36.9155 12.1861C37.5535 12.218 38.032 12.7284 38.0001 13.3664C37.9682 13.9725 37.4578 14.451 36.8517 14.451Z" fill="url(#paint9_linear_1_468)"/>
<path d="M24.2188 17.992C23.8359 17.992 23.485 17.8006 23.2617 17.4816C22.9108 16.9712 23.0703 16.2375 23.5807 15.9185C23.804 15.759 24.0273 15.6314 24.2507 15.4719C24.793 15.1529 25.4948 15.3124 25.8138 15.8547C26.1328 16.397 25.9733 17.0988 25.431 17.4178C25.2396 17.5454 25.0163 17.673 24.8249 17.8006C24.6654 17.9282 24.4421 17.992 24.2188 17.992Z" fill="url(#paint10_linear_1_468)"/>
<defs>
<linearGradient id="paint0_linear_1_468" x1="5.68207" y1="0.0637856" x2="5.68207" y2="25.0421" gradientUnits="userSpaceOnUse">
<stop stop-color="#A953DC"/>
<stop offset="1" stop-color="#ED95B4"/>
</linearGradient>
<linearGradient id="paint1_linear_1_468" x1="66.3117" y1="0.0637856" x2="66.3117" y2="25.0421" gradientUnits="userSpaceOnUse">
<stop stop-color="#A953DC"/>
<stop offset="1" stop-color="#ED95B4"/>
</linearGradient>
<linearGradient id="paint2_linear_1_468" x1="35.9898" y1="48.521" x2="35.9898" y2="67.4701" gradientUnits="userSpaceOnUse">
<stop stop-color="#A953DC"/>
<stop offset="1" stop-color="#ED95B4"/>
</linearGradient>
<linearGradient id="paint3_linear_1_468" x1="35.9899" y1="0" x2="35.9899" y2="72" gradientUnits="userSpaceOnUse">
<stop stop-color="#A953DC"/>
<stop offset="1" stop-color="#ED95B4"/>
</linearGradient>
<linearGradient id="paint4_linear_1_468" x1="35.9746" y1="30.8959" x2="35.9746" y2="50.786" gradientUnits="userSpaceOnUse">
<stop stop-color="#A953DC"/>
<stop offset="1" stop-color="#ED95B4"/>
</linearGradient>
<linearGradient id="paint5_linear_1_468" x1="35.99" y1="6.09304" x2="35.99" y2="35.027" gradientUnits="userSpaceOnUse">
<stop stop-color="#A953DC"/>
<stop offset="1" stop-color="#ED95B4"/>
</linearGradient>
<linearGradient id="paint6_linear_1_468" x1="47.7801" y1="14.8038" x2="47.7801" y2="17.4497" gradientUnits="userSpaceOnUse">
<stop stop-color="#A953DC"/>
<stop offset="1" stop-color="#ED95B4"/>
</linearGradient>
<linearGradient id="paint7_linear_1_468" x1="42.3244" y1="12.7898" x2="42.3244" y2="15.4081" gradientUnits="userSpaceOnUse">
<stop stop-color="#A953DC"/>
<stop offset="1" stop-color="#ED95B4"/>
</linearGradient>
<linearGradient id="paint8_linear_1_468" x1="29.8725" y1="12.8496" x2="29.8725" y2="15.5676" gradientUnits="userSpaceOnUse">
<stop stop-color="#A953DC"/>
<stop offset="1" stop-color="#ED95B4"/>
</linearGradient>
<linearGradient id="paint9_linear_1_468" x1="36.0701" y1="12.1719" x2="36.0701" y2="14.4524" gradientUnits="userSpaceOnUse">
<stop stop-color="#A953DC"/>
<stop offset="1" stop-color="#ED95B4"/>
</linearGradient>
<linearGradient id="paint10_linear_1_468" x1="24.5254" y1="15.3086" x2="24.5254" y2="17.992" gradientUnits="userSpaceOnUse">
<stop stop-color="#A953DC"/>
<stop offset="1" stop-color="#ED95B4"/>
</linearGradient>
</defs>
</svg>
