<svg width="72" height="72" viewBox="0 0 72 72" fill="none" xmlns="http://www.w3.org/2000/svg">
<path fill-rule="evenodd" clip-rule="evenodd" d="M59.2541 0.506955C59.93 1.1829 59.93 2.27881 59.2541 2.95475L43.4375 18.7694L50.6067 31.1831L69.0453 12.7459C69.7212 12.07 70.8171 12.07 71.493 12.7459C72.169 13.4219 72.169 14.5178 71.493 15.1937L52.3981 34.2865L53.4601 36.1258C55.0753 38.9234 54.2055 42.4737 51.5357 44.221L51.2427 44.4012C50.1888 45.0096 49.0281 45.2654 47.8971 45.2052C48.0134 47.4041 46.9176 49.5883 44.8782 50.7657C43.8248 51.3739 42.6647 51.6298 41.5343 51.5699C41.6491 53.7687 40.5533 55.9524 38.5142 57.1297C35.9413 58.6152 32.7316 57.9988 30.8735 55.8132L15.1937 71.493C14.5178 72.169 13.4219 72.169 12.7459 71.493C12.07 70.8171 12.07 69.7212 12.7459 69.0453L28.6566 53.1346C28.7742 53.017 28.9045 52.9198 29.0431 52.8432L21.8399 40.367L2.95475 59.2541C2.27881 59.93 1.1829 59.93 0.506955 59.2541C-0.168985 58.5781 -0.168985 57.4822 0.506955 56.8063L20.0485 37.2635L18.9883 35.4258C17.3731 32.6282 18.2429 29.0779 20.9128 27.3306L21.2057 27.1504C22.2591 26.5423 23.4192 26.2864 24.5496 26.3463C24.4348 24.1474 25.5305 21.9637 27.5696 20.7865C28.623 20.1783 29.7831 19.9224 30.9135 19.9823C30.799 17.7835 31.8948 15.5993 33.9342 14.4219C36.5072 12.9364 39.7169 13.5528 41.575 15.7384L56.8063 0.506955C57.4822 -0.168985 58.5781 -0.168985 59.2541 0.506955ZM26.4831 31.0987C25.8083 29.9299 24.3621 29.4843 23.159 30.0336L22.9365 30.1484L22.7259 30.2837C21.716 31.003 21.3565 32.3446 21.8715 33.4725L21.9862 33.6949L33.2368 53.1815C33.9537 54.4232 35.5416 54.8487 36.7834 54.1318C37.9521 53.457 38.3977 52.0108 37.8484 50.8077L37.7337 50.5852L26.4831 31.0987ZM32.8471 24.7347C32.1723 23.566 30.7261 23.1203 29.523 23.6697L29.3005 23.7844L29.0899 23.9197C28.0799 24.639 27.7205 25.9806 28.2355 27.1085L28.3502 27.331L39.6007 46.8175C40.3177 48.0593 41.9055 48.4847 43.1473 47.7678C44.3161 47.093 44.7617 45.6468 44.2124 44.4437L44.0976 44.2212L32.8471 24.7347ZM39.2117 18.3701C38.5369 17.2014 37.0906 16.7558 35.8876 17.3051L35.6651 17.4198L35.4545 17.5551C34.4445 18.2744 34.085 19.616 34.6 20.7439L34.7148 20.9664L45.9653 40.4529C46.6823 41.6947 48.2701 42.1202 49.5119 41.4032C50.6806 40.7285 51.1263 39.2822 50.5769 38.0791L50.4622 37.8566L39.2117 18.3701Z" fill="url(#paint0_linear_1_435)"/>
<defs>
<linearGradient id="paint0_linear_1_435" x1="36" y1="0" x2="36" y2="72" gradientUnits="userSpaceOnUse">
<stop stop-color="#A953DC"/>
<stop offset="1" stop-color="#ED95B4"/>
</linearGradient>
</defs>
</svg>
