<svg width="639" height="706" viewBox="0 0 639 706" fill="none" xmlns="http://www.w3.org/2000/svg">
<path d="M149.145 841.602C171.429 825.759 190.144 806.077 206.978 784.642C223.934 762.611 238.15 738.775 251.364 714.361C270.921 677.812 290.883 641.718 314.183 607.55C328.314 586.558 343.85 566.599 361.601 548.585C379.423 530.835 398.387 514.189 419.265 497.312C437.001 482.405 456.986 467.46 473.735 448.869C486.328 434.776 497.656 420.176 505.1 402.668C516.555 375.905 521.372 347.536 520.955 318.595C520.317 280.405 508.884 245.107 486.48 214.16C470.777 192.417 451.302 174.506 430.073 158.475C416.278 148.068 400.922 139.208 386.285 129.873C366.833 117.315 346.418 106.425 324.601 98.732C283.83 84.5525 241.964 79.9748 199.068 81.0324C159.279 82.1035 120.092 87.5264 81.3663 96.7747C18.7302 111.584 -39.6464 135.97 -94.3607 169.811C-109.346 179.185 -124.262 188.823 -138.034 199.565C-163.106 218.694 -186.491 239.91 -207.59 263.333C-224.146 281.591 -239.368 300.619 -253.517 320.488C-287.181 367.587 -313.449 418.064 -330.177 473.6C-341.2 510.401 -347.183 548.109 -346.405 586.826C-345.659 627.525 -338.119 667.251 -324.979 705.758C-314.058 738.09 -299.328 768.837 -279.158 796.716C-263.525 818.195 -245.296 836.723 -223.875 852.42C-165.76 895.518 -100.577 914.438 -28.6599 908.99C36.9191 904.111 95.8929 879.847 149.145 841.602Z" fill="#1A1745"/>
<path d="M201.955 298.125C200.555 299.338 200.835 301.017 201.022 302.51C201.488 306.988 202.328 311.466 203.914 315.664C204.287 316.503 204.753 317.343 205.313 318.089C205.686 318.556 206.06 319.022 206.713 318.836C207.366 318.742 207.552 318.089 207.739 317.53C208.019 316.317 208.019 315.011 207.925 313.705C207.739 309.507 207.086 305.495 205.406 301.577C206.992 302.79 208.205 304.282 209.418 305.775C221.826 320.981 233.86 336.468 245.521 352.234C249.16 357.178 253.265 361.843 256.716 366.974C259.608 371.172 262.78 375.183 266.139 379.008C271.923 385.538 277.987 391.882 284.144 398.133C287.316 401.305 289.741 404.85 290.394 409.328C290.861 412.873 290.487 416.324 289.648 419.776C289.368 421.082 289.555 422.295 290.021 423.601C291.42 427.053 293.1 430.411 293.473 434.236C293.753 437.688 293.286 441.046 292.726 444.405C291.794 450.282 290.581 456.066 289.181 461.85C289.088 462.317 288.995 462.783 289.275 463.249C289.928 463.156 290.021 462.596 290.114 462.13C292.073 455.413 293.846 448.696 294.872 441.793C295.712 436.009 294.872 430.598 292.54 425.28C292.073 424.347 291.794 423.321 291.327 422.295C290.954 421.455 291.14 420.709 291.327 419.869C292.353 415.858 292.633 411.846 291.794 407.742C290.767 402.984 287.782 399.532 284.517 396.174C276.68 388.151 268.564 380.314 261.661 371.545C257.556 366.414 253.918 360.816 250.186 355.406C239.084 339.36 227.05 324.06 214.642 309.04C212.03 305.962 209.605 302.696 206.619 299.991C205.966 299.431 205.22 298.872 204.474 298.312C204.194 298.125 203.914 297.939 203.727 297.565C199.902 289.822 193.932 283.852 188.148 277.695C183.017 272.097 177.233 267.153 172.755 260.902C170.236 257.357 167.344 254.185 165.758 250.081C164.638 247.189 165.571 244.483 166.877 241.964C167.344 241.125 167.997 241.311 168.65 241.871C169.956 242.991 171.169 244.203 172.568 245.229C174.061 246.349 175.647 247.282 177.606 247.189C178.632 247.189 179.565 246.815 180.218 245.883C180.778 245.043 181.338 244.297 181.804 243.364C184.043 238.606 187.401 234.594 190.946 230.676C191.786 229.743 192.719 229.183 193.652 228.437C195.611 226.851 196.544 224.519 194.398 222.467C191.413 219.575 191.413 216.216 192.532 212.578C193.372 209.872 194.678 207.354 195.611 204.648C198.41 197.185 197.757 189.908 194.118 183.005C192.532 179.926 190.014 177.78 187.122 176.008C185.629 175.075 184.043 174.049 182.457 173.209C181.151 172.556 179.658 171.996 178.352 171.437C174.9 169.944 171.729 168.171 168.463 166.399C164.918 164.626 160.161 163.6 154.563 165.186C155.309 163.414 156.056 161.734 156.336 159.775C156.895 154.924 154.563 150.726 150.178 148.58C149.152 148.114 148.033 147.648 146.913 147.461C146.26 147.368 145.794 146.995 145.514 146.248C144.301 143.17 142.435 140.557 139.263 139.065C135.905 137.386 132.547 137.759 129.375 139.718C124.524 142.796 121.911 147.368 120.605 152.779C120.046 155.111 119.393 157.256 118.18 159.402C116.407 162.387 115.568 165.746 116.221 169.291C117.154 174.235 120.512 176.848 125.27 177.967C128.442 178.713 131.707 178.713 134.972 178.247C135.252 178.247 135.625 178.06 135.905 178.34C135.812 178.807 135.439 179.18 135.065 179.553C132.453 181.978 131.894 185.244 131.427 188.509C130.774 193.08 130.867 197.745 130.961 202.316C130.961 205.954 132.36 209.313 134.039 212.484C134.319 213.044 134.879 213.604 135.439 213.977C137.398 215.563 139.45 217.056 141.409 218.642C144.301 220.974 145.514 224.053 145.141 227.691C144.301 235.621 141.129 242.897 138.237 250.174C135.345 257.73 131.707 265.007 129.188 272.657C126.949 279.374 125.55 286.277 125.083 293.367C124.897 297.379 125.643 301.111 126.296 304.935C128.628 318.369 133.573 330.87 138.61 343.464C143.555 355.685 149.152 367.533 154.47 379.568C156.522 384.232 158.575 388.897 160.44 393.655C162.586 398.972 162.026 404.01 159.787 409.141C157.735 413.712 154.936 417.91 152.511 422.295C150.645 425.653 149.152 429.105 148.406 432.93C147.846 435.915 148.593 438.621 149.152 441.419C150.552 448.603 153.63 455.226 156.149 462.037C157.735 466.235 158.481 470.619 158.948 475.097C160.067 484.52 157.175 493.196 154.377 501.965C152.231 508.495 149.525 514.746 147.193 521.09C146.074 524.262 145.234 527.527 145.327 530.978C145.327 532.844 145.794 534.617 146.54 536.203C147.38 537.789 148.406 538.348 150.085 537.789C160.534 534.244 171.076 531.352 181.058 526.314C188.334 522.676 195.798 519.317 203.261 516.238C210.631 513.253 215.948 507.842 219.493 500.846C222.852 494.129 225.371 487.225 226.677 479.762C227.33 476.217 227.61 472.579 227.983 469.033C228.543 464.089 228.822 459.145 229.102 454.107C229.382 449.816 229.009 445.618 227.796 441.419C228.543 441.326 229.102 441.046 229.289 440.3C230.502 435.356 232.647 430.691 233.953 425.747C234.98 421.922 234.98 418.004 234.42 414.085C234.233 413.059 233.58 412.22 233.02 411.38C229.289 406.436 224.624 402.611 220.053 398.506C215.109 394.028 209.605 390.203 204.66 385.725C196.077 378.075 188.428 369.586 181.617 360.257C178.259 355.685 174.061 351.861 169.21 348.875C152.604 338.333 140.943 323.78 133.386 305.775C131.707 301.764 131.334 297.565 130.961 293.274C130.494 286.837 132.453 280.96 134.692 275.082C135.532 272.843 137.118 271.071 138.89 269.485C141.316 267.339 144.301 267.059 147.38 267.433C151.578 267.899 155.03 270.138 158.295 272.657C164.638 277.415 170.049 283.105 175.087 289.169C184.416 300.364 193.559 311.746 203.354 322.567C211.75 331.803 219.867 341.225 227.703 350.834C234.14 358.671 240.484 366.694 246.827 374.623C256.81 387.031 266.885 399.345 276.774 411.753C280.972 416.977 284.89 422.388 287.409 428.639C289.555 433.77 289.648 439.087 289.181 444.498C288.622 451.122 286.849 457.652 286.663 464.276C286.569 468.007 286.663 471.646 287.689 475.284C288.155 476.963 287.875 478.549 286.756 479.948C283.118 484.52 279.852 489.371 275.841 493.569C274.068 495.435 272.203 497.394 269.311 497.487C268.564 495.155 269.031 492.823 269.59 490.49C270.523 485.919 271.829 481.348 272.576 476.683C272.762 475.284 272.949 473.791 273.042 472.392C273.042 471.925 273.229 471.272 272.576 471.179C271.923 471.086 271.923 471.646 271.736 472.205C270.71 477.43 268.471 482.094 265.206 486.292C264.833 486.759 264.459 487.225 263.9 487.505C263.806 486.572 264.273 485.732 264.553 484.893C266.045 480.975 267.725 477.243 268.657 473.138C269.497 469.407 269.964 465.675 270.057 461.943C270.15 455.32 271.27 449.069 273.882 443.005C274.815 440.953 275.374 438.714 275.748 436.475C276.027 434.703 275.748 433.023 274.535 431.717C269.404 426.027 263.433 421.828 255.597 420.989C252.798 420.709 249.999 420.709 247.294 420.056C244.402 419.31 242.163 417.351 240.017 415.391L239.924 415.298C239.644 414.832 239.924 413.992 238.991 414.085C238.151 414.272 238.245 415.112 238.151 415.671C237.872 418.283 236.845 420.709 236.006 423.135C235.353 424.907 235.259 426.68 236.192 428.452C242.163 440.207 248.04 451.961 254.384 463.529C256.157 466.794 257.929 470.153 259.608 473.418C259.795 473.885 260.075 474.351 260.355 474.724C260.634 475.097 260.728 475.937 261.474 475.657C262.314 475.284 261.661 474.631 261.474 474.164C260.541 472.019 259.515 469.78 258.489 467.634C252.052 454.947 245.708 442.259 239.271 429.572C238.991 429.012 238.804 428.545 238.525 427.986C237.685 426.586 237.685 425.187 238.338 423.788C239.271 421.642 239.924 419.496 240.111 417.071C240.764 417.351 241.23 417.91 241.603 418.283C244.309 421.082 247.667 422.388 251.399 422.388C259.608 422.481 266.232 425.84 271.923 431.531C273.788 433.397 274.441 435.449 273.695 437.968C273.135 439.834 272.576 441.793 271.829 443.565C269.59 449.163 268.564 454.947 268.564 460.917C268.564 468.38 267.258 475.564 264.18 482.374C263.62 483.68 263.247 484.986 262.78 486.292C262.594 486.759 262.594 487.225 262.594 487.785C262.594 488.904 263.34 489.371 264.459 488.998C265.765 488.531 266.512 487.505 267.351 486.479C268.564 484.986 269.404 483.307 270.523 481.721C269.87 484.706 269.217 487.692 268.564 490.677C268.004 493.102 268.004 495.435 268.378 497.86C268.471 498.7 269.031 498.98 269.777 498.886C271.829 498.793 273.695 498.233 275.374 496.834C279.013 493.662 281.905 489.931 284.797 486.106C285.73 484.893 286.569 483.587 287.595 482.467C290.114 479.762 290.674 476.683 289.555 473.325C288.622 470.34 288.902 467.261 289.088 464.276C289.275 459.518 290.114 454.853 291.047 450.095C293.286 438.341 290.674 427.612 283.957 417.724C278.266 409.421 271.829 401.584 265.579 393.655C254.664 379.848 243.656 366.134 232.554 352.514C223.412 341.319 213.896 330.404 204.194 319.675C195.704 310.346 187.775 300.644 179.845 290.942C174.247 284.038 168.37 277.321 161.187 271.911C157.828 269.298 154.47 266.78 150.178 265.753C147.566 265.1 144.861 265.1 142.249 265.66C138.331 266.593 136.092 269.485 134.226 272.657C132.173 276.202 131.24 280.12 130.401 284.038C128.442 293.927 130.308 303.256 134.786 312.212C140.103 322.754 146.913 332.176 155.496 340.293C159.041 343.651 162.866 346.636 166.877 349.155C173.315 353.167 178.352 358.484 182.923 364.548C191.32 375.836 201.022 385.725 212.31 394.214C218.094 398.506 223.691 403.17 228.729 408.301C234.793 414.459 233.487 414.085 233.394 421.735C233.394 423.974 232.834 426.213 231.901 428.359C230.595 431.531 229.569 434.703 228.729 437.968C228.636 438.154 228.543 438.341 228.449 438.621C227.61 437.595 226.863 436.568 226.304 435.449C223.132 429.012 219.12 423.135 213.429 418.75C206.992 413.712 199.436 411.1 191.226 411.846C181.338 412.779 172.008 415.578 164.825 422.948C160.72 427.146 157.642 432.09 156.429 437.968C155.589 441.886 155.962 445.804 157.269 449.629C157.735 451.028 158.575 452.241 159.694 453.174C161 454.294 162.213 454.2 163.426 453.081C165.012 451.495 165.851 449.442 166.971 447.483C170.982 439.834 176.393 433.49 184.416 430.038C192.346 426.586 200.649 425.56 209.138 426.4C210.631 426.586 211.937 427.333 213.243 427.892C216.321 429.292 219.027 431.251 221.639 433.21C224.251 435.169 225.557 437.968 226.49 441.046C228.169 446.271 227.983 451.588 227.61 456.906C227.33 461.104 226.863 465.302 226.49 469.407C225.651 480.788 222.852 491.517 217.161 501.405C213.803 507.189 209.045 511.574 202.794 514.093C194.118 517.638 185.536 521.649 177.046 525.661C169.676 529.206 161.933 531.538 154.097 533.87C152.884 534.244 151.578 534.617 150.365 535.176C149.432 535.55 148.966 535.176 148.686 534.43C147.473 531.818 147.66 529.113 148.126 526.314C149.059 521.369 151.298 516.798 153.07 512.134C156.336 503.551 159.414 494.968 161.187 485.919C161.933 482.281 161.84 478.736 161.56 475.097C161.187 470.34 160.534 465.582 158.668 461.01C156.802 456.346 154.936 451.588 153.35 446.83C152.044 443.192 151.298 439.274 150.738 435.449C150.272 431.997 151.671 429.012 153.07 426.027C154.843 421.922 157.455 418.283 159.694 414.458C161.84 410.82 163.519 406.902 164.265 402.797C164.825 399.625 163.985 396.453 162.959 393.468C159.414 383.393 155.03 373.504 150.645 363.802C143.088 346.916 135.905 329.937 130.867 312.119C129.375 306.988 128.442 301.764 127.882 296.539C127.229 290.382 128.722 284.411 130.028 278.348C131.52 271.724 134.599 265.753 137.025 259.41C139.637 252.413 142.622 245.509 144.768 238.326C145.887 234.501 146.633 230.676 147.286 226.758C148.033 222.467 146.167 218.922 142.715 216.216C141.129 215.003 139.45 213.791 137.957 212.484C135.065 210.152 133.853 206.794 133.386 203.342C132.64 196.998 133.2 190.748 134.412 184.591C134.692 183.285 135.252 182.072 136.092 181.046C136.558 180.393 137.211 179.833 137.398 179.086C138.051 177.314 139.543 176.661 141.129 176.101C145.047 174.609 148.499 172.276 151.391 169.384C156.149 164.533 161.56 164.626 167.251 167.052C170.236 168.358 173.035 170.317 176.113 171.437C179.658 172.743 182.923 174.609 186.282 176.474C191.879 179.553 194.771 184.311 195.798 190.561C196.544 195.412 195.704 199.89 193.932 204.275C192.906 206.794 191.693 209.313 191.226 212.018C190.946 213.511 190.76 215.097 190.853 216.683C191.04 218.922 192.159 220.601 193.559 222.187C195.145 223.866 195.145 224.519 193.465 226.105C189.734 229.463 186.189 233.102 183.39 237.3C182.177 239.166 181.151 241.125 180.218 243.084C179.285 244.95 178.166 245.416 176.207 244.67C174.434 244.017 173.128 242.804 171.729 241.684C171.169 241.218 170.702 240.752 170.143 240.285C168.463 238.886 166.877 239.166 165.758 241.031C165.105 242.058 164.825 243.27 164.452 244.39C163.612 246.815 164.172 249.054 165.105 251.293C166.504 254.652 168.93 257.357 170.982 260.436C173.874 264.914 177.979 268.272 181.524 272.19C186.469 277.601 191.506 282.919 196.451 288.33C198.316 291.781 200.182 294.86 201.955 298.125ZM221.452 432.09C219.867 431.064 218.467 430.038 216.975 429.105C214.642 427.612 212.31 426.027 209.605 425.56C204.007 424.534 198.41 424.72 192.906 425.84C188.054 426.866 183.203 428.172 179.005 431.064C172.661 435.449 167.81 441.233 164.639 448.323C164.265 449.256 163.799 450.095 163.239 450.935C162.679 451.775 162.213 453.081 161 452.988C159.787 452.801 159.321 451.588 158.854 450.562C157.548 447.39 157.175 444.032 157.642 440.766C158.668 433.77 162.213 428.079 167.344 423.508C174.061 417.537 182.27 415.205 190.946 414.272C195.984 413.712 200.835 415.112 205.5 417.071C212.59 420.056 217.161 425.653 221.359 431.717C221.452 431.624 221.452 431.811 221.452 432.09ZM139.917 170.41C139.823 169.664 139.73 169.104 139.543 168.451C138.797 164.813 137.398 161.548 134.506 159.029C131.427 156.417 126.763 156.977 124.897 160.148C123.964 161.641 123.777 163.32 123.964 165C124.337 169.198 126.949 173.489 132.08 174.049C134.039 174.235 135.905 173.862 137.771 173.489C137.864 174.049 137.957 174.422 137.678 174.888C136.185 175.262 134.599 175.355 133.106 175.262C128.348 174.888 124.617 172.743 122.658 168.265C121.258 165 121.165 161.548 121.258 158.096C121.258 157.536 121.538 157.07 121.911 156.697C127.789 150.26 135.159 147.927 143.648 148.674C144.301 148.767 144.768 149.047 144.861 149.793C145.701 153.711 146.074 157.63 145.234 161.548C144.488 165 142.809 167.892 139.917 170.41ZM146.447 149.327C152.791 150.726 155.962 156.324 153.817 162.201C152.138 166.772 148.593 169.851 144.674 172.37C143.182 173.302 141.689 174.049 139.917 174.515C140.01 173.676 139.543 172.836 140.383 172.183C145.141 168.638 147.193 163.787 147.286 158.003C147.38 155.018 147.193 152.219 146.447 149.327ZM121.911 154.458C122.658 149.513 125.177 144.942 128.815 141.957C130.681 140.371 132.92 139.345 135.345 139.531C139.263 139.811 142.809 142.983 143.928 146.995C139.917 146.715 135.905 146.995 132.08 148.301C128.255 149.513 124.897 151.566 121.911 154.458ZM133.666 172.649C127.789 172.836 125.083 167.705 125.55 163.6C125.83 160.895 127.509 159.309 129.934 159.216C131.52 159.216 132.826 159.869 133.853 160.988C136.185 163.507 137.398 166.492 137.864 169.851C138.144 171.717 137.957 171.903 135.998 172.463C135.159 172.556 134.412 172.649 133.666 172.649ZM119.579 160.428C119.672 168.078 122.005 174.235 130.028 176.754C125.55 176.568 121.258 176.008 118.74 171.717C116.594 167.892 117.807 164.067 119.579 160.428ZM202.608 299.431C205.5 305.122 206.806 310.999 206.433 317.436C203.821 315.104 201.208 302.603 202.608 299.431Z" fill="url(#paint0_linear_1_450)"/>
<defs>
<linearGradient id="paint0_linear_1_450" x1="205.595" y1="138" x2="205.595" y2="538" gradientUnits="userSpaceOnUse">
<stop stop-color="#A953DC"/>
<stop offset="1" stop-color="#ED95B4"/>
</linearGradient>
</defs>
</svg>
