<svg width="52" height="72" viewBox="0 0 52 72" fill="none" xmlns="http://www.w3.org/2000/svg">
<path d="M25.8238 0C17.3564 0 10.8098 4.11735 6.48847 10.6646C2.16713 17.2118 0 26.1565 0 35.997C2.95789e-05 45.8404 2.22549 54.79 6.57407 61.3354C10.9226 67.8808 17.4638 72 25.8238 72C34.1838 72 40.7296 67.8808 45.0782 61.3354C49.4267 54.79 51.6522 45.8404 51.6522 35.997C51.6522 26.1565 49.4866 17.2118 45.1653 10.6646C40.844 4.11735 34.2912 0 25.8238 0ZM25.8238 1.56515C33.7907 1.56515 39.767 5.32617 43.8585 11.5251C47.9499 17.7241 50.0871 26.3874 50.0871 35.997C50.0871 45.6035 47.8925 54.2679 43.7729 60.4687C39.6532 66.6696 33.6764 70.4348 25.8238 70.4348C17.9712 70.4348 11.9944 66.6696 7.87477 60.4687C3.75513 54.2679 1.56523 45.6035 1.5652 35.997C1.5652 26.3874 3.70228 17.7241 7.79375 11.5251C11.8852 5.32617 17.857 1.56515 25.8238 1.56515ZM25.8238 3.1304C19.5219 3.1304 14.0437 6.81588 10.1568 11.6398C6.26991 16.4636 3.9114 22.4387 3.9114 27.3882C3.9114 30.6407 4.96435 33.0894 6.83389 34.6106C7.93523 35.5067 8.88051 35.8466 9.27545 35.997C8.66479 36.2431 7.83342 36.5536 6.83389 37.3833C4.97938 38.9227 3.9114 41.3517 3.9114 44.6041C3.9114 49.3482 6.3141 55.3168 10.2195 60.1921C14.1249 65.0674 19.5979 68.8681 25.8238 68.8681C33.181 68.8681 38.9467 65.0895 42.761 59.1114C46.5753 53.1333 48.5203 44.9713 48.5203 35.997C48.5203 27.0255 46.6263 18.8685 42.8359 12.8886C39.0454 6.90867 33.2744 3.1304 25.8238 3.1304ZM41.5137 13.7262C45.0845 19.3595 46.9552 27.2473 46.9552 35.997C46.9552 44.7438 45.0388 52.6326 41.4434 58.2677C37.8481 63.9027 32.6527 67.3028 25.8238 67.3028C20.24 67.3028 15.1509 63.8369 11.4438 59.2092C7.73675 54.5816 5.4766 48.8045 5.4766 44.6041C5.4766 41.6824 6.36207 39.8122 7.83351 38.5908C9.30497 37.3694 11.4619 36.7826 14.085 36.7826H15.6502C15.8584 36.7825 16.0582 36.6995 16.2051 36.5519C16.2051 36.5519 16.3485 36.4079 16.5749 36.257C16.8015 36.1059 17.0849 35.997 17.2154 35.997C17.3458 35.997 17.6954 36.1224 18.0943 36.3149C18.196 36.364 18.2987 36.4184 18.4076 36.4722C18.3762 36.6615 18.3603 36.8571 18.3603 37.0546C18.3603 37.634 18.4996 38.1835 18.747 38.6673C16.8748 39.6939 15.6502 41.7383 15.6502 44.0554V53.2189H14.8707C13.9374 53.2189 13.1342 53.4949 12.5765 54.0046C12.0187 54.5143 11.7388 55.2363 11.7388 55.9564C11.7388 56.6766 12.0187 57.3942 12.5765 57.9039C13.1342 58.4136 13.9374 58.6956 14.8707 58.6956H17.995C19.4051 58.6956 20.5657 57.9824 21.2705 56.9729C21.7669 56.262 22.0709 55.4158 22.2075 54.5227C24.0021 57.4919 27.2525 59.4752 30.9703 59.4752C36.6343 59.4752 41.4786 54.8982 41.4786 49.1912V34.4133C41.4786 31.7631 40.3351 29.4775 38.7311 27.692C40.4465 25.747 41.4786 23.2465 41.4786 20.4395C41.4786 14.3477 36.515 9.39281 30.4567 9.39281C24.3985 9.39281 19.4746 14.3514 19.4746 20.4395C19.4746 23.4311 20.549 26.0311 22.4749 28.0208C22.5997 30.2227 23.3362 32.0826 24.9877 33.6338H21.6404C20.5586 33.6338 19.6073 34.1803 19.0114 35.0125C18.9369 34.98 18.8576 34.9451 18.776 34.9055C18.3646 34.7067 17.8675 34.4316 17.2154 34.4316C16.5632 34.4316 16.0686 34.7174 15.7083 34.9575C15.5178 35.0843 15.4918 35.1234 15.3843 35.2174H14.0851C11.462 35.2174 9.305 34.6306 7.83354 33.4092C6.3621 32.1878 5.47663 30.3101 5.47663 27.3883C5.47663 22.9465 7.69478 17.19 11.3751 12.6226C15.0553 8.05522 20.1341 4.69564 25.8238 4.69564C32.7306 4.69564 37.943 8.09296 41.5137 13.7262ZM21.1329 7.82143C18.9741 7.82143 17.2154 9.68707 17.2154 11.7391C17.2171 12.1714 17.5688 12.5204 18.001 12.5187C18.4309 12.517 18.7789 12.169 18.7806 11.7391C18.7806 10.6608 19.9521 9.38667 21.1329 9.38667C21.5627 9.38499 21.9107 9.03696 21.9124 8.60712C21.9141 8.17488 21.5651 7.82312 21.1329 7.82143ZM30.4567 10.958C35.6638 10.958 39.9134 15.1957 39.9134 20.4395C39.9134 23.0559 38.821 25.4207 37.1117 27.1406C36.8099 27.4476 36.8127 27.9406 37.1176 28.2442C38.7151 29.8479 39.9132 32.0432 39.9132 34.4134V49.1912C39.9132 54.0095 35.7908 57.91 30.97 57.91C26.1492 57.91 22.2928 54.0354 22.2928 49.1912V46.1357C22.2911 45.7034 21.9394 45.3544 21.5071 45.3561C21.0773 45.3578 20.7293 45.7058 20.7276 46.1357V49.1912V53.3794C20.7276 54.4173 20.4514 55.4071 19.9833 56.0773C19.5153 56.7475 18.9145 57.1289 17.9947 57.1289H14.8705C14.2385 57.1289 13.8588 56.9538 13.6339 56.7483C13.4091 56.5427 13.3038 56.2886 13.3038 55.9565C13.3038 55.6245 13.4091 55.3657 13.6339 55.1602C13.8587 54.9546 14.2385 54.778 14.8705 54.778H16.4357C16.8654 54.7763 17.2135 54.4283 17.2152 53.9984V44.0554C17.2152 41.4989 19.0187 39.5324 21.5071 39.5324C23.9956 39.5324 25.8236 41.5029 25.8236 44.0554V50.249C25.8253 50.6812 26.177 51.0302 26.6092 51.0285C27.0391 51.0269 27.3871 50.6788 27.3888 50.249V44.0554C27.3888 42.6331 26.9234 41.3161 26.1308 40.2722H32.0858C32.9569 40.2722 33.7227 40.1373 34.3266 39.6654C34.9305 39.1936 35.2162 38.414 35.2162 37.5744V33.6506C35.2179 33.216 34.8651 32.8632 34.4305 32.865C33.9983 32.8666 33.6493 33.2184 33.651 33.6506V37.5744C33.651 38.119 33.5409 38.2953 33.362 38.4349C33.1833 38.5745 32.7799 38.7056 32.0857 38.7056H24.3439C23.5108 38.2354 22.5472 37.9673 21.507 37.9673C21.0642 37.9673 20.6362 38.0158 20.2261 38.1078C20.0377 37.8123 19.925 37.4533 19.925 37.0546C19.925 35.9904 20.702 35.199 21.6415 35.199H29.9198C30.3544 35.2007 30.7072 34.8479 30.7055 34.4133C30.7038 33.9811 30.352 33.6321 29.9198 33.6338H28.8667C26.2361 33.6338 24.026 30.89 24.026 27.6954C24.0276 27.4881 23.9467 27.2885 23.8012 27.1406C22.0958 25.4247 21.0391 23.0632 21.0392 20.4395C21.0392 15.1921 25.2496 10.958 30.4567 10.958ZM13.304 16.4348C12.0166 16.4348 10.9532 17.4936 10.9532 18.781C10.9532 20.0684 12.0166 21.1258 13.304 21.1258C14.5913 21.1258 15.6502 20.0684 15.6502 18.781C15.6502 17.4937 14.5913 16.4348 13.304 16.4348ZM13.304 18.0015C13.7419 18.0015 14.085 18.3396 14.085 18.781C14.085 19.2225 13.7455 19.5606 13.304 19.5606C12.8625 19.5606 12.5183 19.2225 12.5183 18.781C12.5183 18.3553 12.866 18.0015 13.304 18.0015ZM14.8707 25.823C13.1511 25.823 11.7388 27.2354 11.7388 28.955C11.7388 30.6746 13.1511 32.0854 14.8707 32.0854C16.5902 32.0854 18.001 30.6746 18.001 28.955C18.001 27.2354 16.5902 25.823 14.8707 25.823ZM14.8707 27.3882C15.7443 27.3882 16.4359 28.0813 16.4359 28.955C16.4359 29.8287 15.7443 30.5202 14.8707 30.5202C13.997 30.5202 13.304 29.8287 13.304 28.955C13.304 28.0813 13.997 27.3882 14.8707 27.3882ZM44.0556 33.0973C43.2714 33.8816 42.9579 34.9807 42.9689 36.0367C42.9807 37.0927 43.3077 38.1487 44.0556 38.8966C44.3609 39.2001 44.8539 39.2001 45.1592 38.8966C45.4627 38.5913 45.4627 38.0982 45.1592 37.7929C44.8003 37.4341 44.5431 36.7398 44.5356 36.0198C44.5267 35.2999 44.7627 34.602 45.1592 34.2055C45.4657 33.8997 45.4657 33.4031 45.1592 33.0973C44.7834 32.7319 44.2982 32.8548 44.0556 33.0973ZM13.304 39.1274C12.8694 39.1257 12.5166 39.4785 12.5183 39.9131C12.5183 40.9914 11.3544 42.2593 10.1736 42.2593C9.7438 42.261 9.39581 42.609 9.39412 43.0389C9.39244 43.4711 9.74141 43.8229 10.1736 43.8245C12.3324 43.8245 14.085 41.9651 14.085 39.9131C14.0867 39.4802 13.7368 39.1282 13.304 39.1274ZM8.60845 49.3013C8.60845 50.5887 9.6658 51.6522 10.9532 51.6522C12.2405 51.6522 13.304 50.5887 13.304 49.3013C13.304 48.0138 12.2745 46.9566 10.9532 46.9566C9.63188 46.9566 8.60845 48.0088 8.60845 49.3013ZM10.9532 48.5217C11.3946 48.5217 11.7388 48.8598 11.7388 49.3013C11.7388 49.7428 11.3946 50.087 10.9532 50.087C10.5117 50.087 10.1736 49.7427 10.1736 49.3013C10.1736 48.8598 10.5117 48.5217 10.9532 48.5217ZM19.5662 62.6057C19.5662 63.893 20.625 64.958 21.9124 64.958C23.1998 64.958 24.2571 63.893 24.2571 62.6057C24.2571 61.3182 23.2217 60.2609 21.9124 60.2609C20.6032 60.2609 19.5662 61.2715 19.5662 62.6057ZM32.3169 62.0523C31.9579 62.4112 31.2637 62.6746 30.5438 62.6821C29.8239 62.691 29.126 62.4487 28.7295 62.0523C28.3464 61.6978 27.87 61.8021 27.6198 62.0523C27.3133 62.3581 27.3133 62.8547 27.6198 63.1605C28.4041 63.9448 29.4985 64.2583 30.5545 64.2473C31.6105 64.2354 32.6725 63.9084 33.4204 63.1605C33.7269 62.8547 33.7269 62.3581 33.4204 62.0523C33.045 61.6898 32.5568 61.8124 32.3169 62.0523ZM21.9124 61.826C22.3539 61.826 22.6919 62.1641 22.6919 62.6056C22.6919 63.0471 22.3539 63.3913 21.9124 63.3913C21.4709 63.3913 21.1329 63.0471 21.1329 62.6056C21.1329 62.1641 21.4709 61.826 21.9124 61.826Z" fill="url(#paint0_linear_1_485)"/>
<defs>
<linearGradient id="paint0_linear_1_485" x1="25.8261" y1="0" x2="25.8261" y2="72" gradientUnits="userSpaceOnUse">
<stop stop-color="#A953DC"/>
<stop offset="1" stop-color="#ED95B4"/>
</linearGradient>
</defs>
</svg>
