<svg width="76" height="72" viewBox="0 0 76 72" fill="none" xmlns="http://www.w3.org/2000/svg">
<path d="M3.26489 13.116C4.12599 12.6439 5.20652 12.9631 5.67531 13.8242C6.14742 14.6886 5.82824 15.7658 4.96714 16.2379C4.10604 16.7067 3.02551 16.3908 2.55673 15.5264C2.08462 14.6653 2.40379 13.5848 3.26489 13.116ZM8.29847 14.7019C8.29847 14.1433 8.18545 13.6081 7.98597 13.1226L19.2867 6.59956C20.0414 7.63022 21.2615 8.30514 22.638 8.30514C24.0144 8.30514 25.2712 7.61028 26.0225 6.55302L37.3964 13.1193C37.1936 13.6081 37.0805 14.1433 37.0805 14.7052C37.0805 16.71 38.5035 18.3857 40.3986 18.7713V31.8907C38.1079 31.8907 36.2494 33.7492 36.2494 36.0399C36.2494 36.5652 36.3491 37.0706 36.5286 37.5327L25.7699 43.7433C25.0151 42.9387 23.9413 42.44 22.751 42.44C21.5608 42.44 20.4503 42.9586 19.6923 43.7898L8.84706 37.5294C9.02327 37.0672 9.12303 36.5652 9.12303 36.0432C9.12303 33.7558 7.27447 31.904 4.98707 31.894V18.7713C6.87218 18.3823 8.29186 16.71 8.29186 14.7085L8.29847 14.7019ZM22.638 5.69524C21.6971 5.69524 20.9257 4.9638 20.8659 4.03621C20.9257 3.10861 21.6971 2.37717 22.638 2.37717C23.5789 2.37717 24.3502 3.10861 24.4101 4.03621C24.3502 4.9638 23.5789 5.69524 22.638 5.69524ZM41.3628 12.9232C42.3436 12.9232 43.1415 13.7211 43.1415 14.7019C43.1415 15.6827 42.3436 16.4806 41.3628 16.4806C40.382 16.4806 39.5841 15.6827 39.5841 14.7019C39.5841 13.7211 40.382 12.9232 41.3628 12.9232ZM41.3229 37.5327C40.4618 38.0048 39.3812 37.6856 38.9125 36.8245C38.4403 35.9634 38.7595 34.8829 39.6206 34.4141C40.4817 33.942 41.5623 34.2612 42.031 35.1223C42.5032 35.9834 42.184 37.0639 41.3229 37.5327ZM47.0115 51.5896C47.3672 51.4965 47.6631 51.2505 47.8193 50.918C49.4252 47.5168 52.4141 44.9767 56.0148 43.9427C56.2874 43.8629 56.5268 43.6967 56.6897 43.464L63.8478 33.2937C64.147 32.8681 64.1504 32.2996 63.8545 31.8707C63.522 31.3853 63.3424 30.8168 63.3424 30.2283C63.3424 28.6258 64.6457 27.3258 66.2449 27.3258C67.8441 27.3258 69.1474 28.6291 69.1474 30.2283C69.1474 31.8275 67.8441 33.1308 66.2449 33.1308C66.0787 33.1308 65.9058 33.1141 65.7362 33.0842C65.2608 33.0011 64.7787 33.1973 64.5028 33.5929L58.9472 41.4858C58.6845 41.8615 58.6479 42.3502 58.8541 42.7625C59.0602 43.1714 59.4758 43.4341 59.9346 43.4474C66.9431 43.6202 72.645 49.4651 72.645 56.4802C72.645 63.4954 66.7968 69.5164 59.6088 69.5164C52.4208 69.5164 46.5726 63.6683 46.5726 56.4802C46.5726 55.5826 46.6657 54.6816 46.8485 53.8072C46.9483 53.3218 46.7521 52.8231 46.3465 52.5371L32.5589 42.8323L33.3469 42.3768C33.4333 42.5297 33.553 42.666 33.7059 42.7724L45.9741 51.4067C46.2734 51.6195 46.6524 51.686 47.0081 51.5929L47.0115 51.5896ZM22.7544 48.358C21.7736 48.358 20.9756 47.56 20.9756 46.5792C20.9756 45.5984 21.7736 44.8005 22.7544 44.8005C23.7351 44.8005 24.5331 45.5984 24.5331 46.5792C24.5331 47.56 23.7351 48.358 22.7544 48.358ZM5.09677 37.8086C4.11598 37.8086 3.31806 37.0107 3.31806 36.0299C3.31806 35.0491 4.11598 34.2512 5.09677 34.2512C6.07756 34.2512 6.87552 35.0491 6.87552 36.0299C6.87552 37.0107 6.07756 37.8086 5.09677 37.8086ZM0 14.6986C0 16.3576 0.974156 17.7905 2.38383 18.4522V32.795C1.43629 33.553 0.831178 34.7233 0.831178 36.0299C0.831178 38.3206 2.68969 40.1792 4.98041 40.1792C5.78167 40.1792 6.53308 39.9498 7.1681 39.5541L18.6317 46.1736C18.6184 46.3066 18.6117 46.4429 18.6117 46.5792C18.6117 48.87 20.4702 50.7285 22.761 50.7285C25.0517 50.7285 26.9103 48.87 26.9103 46.5792C26.9103 46.4197 26.9003 46.2634 26.8836 46.1105L30.3048 44.1356C30.3912 44.2885 30.5109 44.4248 30.6638 44.5312L44.2752 54.1097C44.1555 54.891 44.0957 55.6823 44.0957 56.4736C44.0957 65.0347 51.0609 72 59.6221 72C68.1832 72 75.1485 65.0347 75.1485 56.4736C75.1485 52.3942 73.5792 48.5408 70.7266 45.625C68.406 43.2512 65.447 41.7085 62.2253 41.1666L66.1319 35.6143C69.1607 35.6841 71.6476 33.2372 71.6476 30.225C71.6476 27.2128 69.2272 24.8323 66.2549 24.8323C63.2826 24.8323 60.8622 27.2527 60.8622 30.225C60.8622 31.0196 61.0351 31.7942 61.3643 32.5024L54.9043 41.6786C51.2704 42.8356 48.1984 45.2892 46.2601 48.5541L35.6177 41.0635L38.2242 39.5574C38.8592 39.9498 39.604 40.1758 40.4053 40.1758C42.696 40.1758 44.5545 38.3173 44.5545 36.0266C44.5545 34.7233 43.9527 33.563 43.0151 32.8016V18.4422C44.4148 17.7772 45.3857 16.3476 45.3857 14.6952C45.3857 12.4045 43.5272 10.546 41.2364 10.546C40.4784 10.546 39.7669 10.7521 39.1518 11.1079L26.7839 3.96971C26.6908 1.7621 24.8722 0 22.6413 0C20.4104 0 18.5552 1.79867 18.4954 4.03952L6.24382 11.1145C5.62875 10.7555 4.91392 10.5493 4.15256 10.5493C1.86184 10.5493 0.00332796 12.4078 0.00332796 14.6986H0Z" fill="url(#paint0_linear_1_481)"/>
<path d="M61.5906 56.7329C61.5906 56.7329 61.5939 56.7196 61.6006 56.7163L64.7956 54.8711H64.8023C64.8023 54.8711 64.809 54.8711 64.8123 54.8711L68.0073 56.713C68.0073 56.713 68.0173 56.7229 68.0173 56.7296V60.42C68.0173 60.42 68.0173 60.43 68.0073 60.4333L64.8156 62.2785C64.8156 62.2785 64.8023 62.2819 64.7956 62.2785L61.6006 60.4333C61.6006 60.4333 61.5939 60.4267 61.5939 60.42V56.7296L61.5906 56.7329ZM60.3538 62.5911L63.5489 64.4363C63.9345 64.659 64.3668 64.7688 64.799 64.7688C65.2312 64.7688 65.6667 64.659 66.0524 64.4363L69.2441 62.5911C70.0188 62.1456 70.4975 61.3144 70.4975 60.42V56.7296C70.4975 55.8386 70.0188 55.0041 69.2441 54.5586L66.0491 52.7167C65.2744 52.2712 64.3136 52.2678 63.5422 52.7167L60.3472 54.5619C59.5758 55.0074 59.0938 55.8386 59.0938 56.7329V60.4234C59.0938 61.3177 59.5758 62.1489 60.3472 62.5944L60.3538 62.5911Z" fill="url(#paint1_linear_1_481)"/>
<defs>
<linearGradient id="paint0_linear_1_481" x1="37.5743" y1="0" x2="37.5743" y2="72" gradientUnits="userSpaceOnUse">
<stop stop-color="#A953DC"/>
<stop offset="1" stop-color="#ED95B4"/>
</linearGradient>
<linearGradient id="paint1_linear_1_481" x1="64.7956" y1="52.3813" x2="64.7956" y2="64.7688" gradientUnits="userSpaceOnUse">
<stop stop-color="#A953DC"/>
<stop offset="1" stop-color="#ED95B4"/>
</linearGradient>
</defs>
</svg>
