<svg width="175" height="175" viewBox="0 0 175 175" fill="none" xmlns="http://www.w3.org/2000/svg">
<path d="M175 91.3889C175 66.3619 163.932 43.8842 146.452 28.5483C131.116 11.0678 108.638 0 83.6111 0C37.5083 0 0 37.5083 0 83.6111C0 108.632 11.0639 131.106 28.5386 146.442C43.8744 163.928 66.3561 175 91.3889 175C91.5522 175 91.7117 174.988 91.875 174.988C92.0383 174.988 92.1978 175 92.3611 175C138.001 175 175 138.001 175 92.3611C175 92.1978 174.988 92.0383 174.988 91.875C174.988 91.7117 175 91.5522 175 91.3889ZM32.7211 132.944C24.4669 121.32 19.5572 107.162 19.4561 91.875C19.7186 51.9925 51.9906 19.7186 91.875 19.4561C107.162 19.5572 121.322 24.4669 132.944 32.7211C146.269 45.6419 154.583 63.6961 154.583 83.6111C154.583 122.745 122.745 154.583 83.6111 154.583C63.6961 154.583 45.6419 146.269 32.7211 132.944ZM1.94444 83.6111C1.94444 38.5797 38.5797 1.94444 83.6111 1.94444C102.779 1.94444 120.412 8.59833 134.361 19.6972C121.794 12.1372 107.092 7.77778 91.3889 7.77778C45.2861 7.77778 7.77778 45.2861 7.77778 91.3889C7.77778 107.088 12.1353 121.786 19.6914 134.351C8.59639 120.406 1.94444 102.776 1.94444 83.6111ZM91.3889 163.333C71.7889 163.333 54.0031 155.449 41.0181 142.693C53.0231 151.383 67.7406 156.528 83.6111 156.528C123.818 156.528 156.528 123.818 156.528 83.6111C156.528 67.7406 151.383 53.0231 142.693 41.0181C155.449 54.0031 163.333 71.7889 163.333 91.3889C163.333 131.059 131.059 163.333 91.3889 163.333Z" fill="white"/>
</svg>
