<svg width="48" height="44" viewBox="0 0 48 44" fill="none" xmlns="http://www.w3.org/2000/svg">
<path d="M18.1636 13.1048C19.9484 11.0655 19.7418 7.96014 17.7024 6.1753L12.0307 1.21622C11.0425 0.350783 9.77578 -0.0804395 8.47314 0.0123978C7.16154 0.0962503 5.96669 0.686184 5.10724 1.67741L2.28632 4.89659C0.507542 6.92689 -0.289051 9.61005 0.0942576 12.2633C0.800978 17.1235 3.36135 24.5054 11.6027 32.0964L15.0135 35.085C23.6679 42.3529 31.3877 43.9402 36.3469 44H36.4547C39.1079 44 41.6204 42.859 43.3782 40.8497L46.1991 37.6305C47.9839 35.5911 47.7773 32.4858 45.7379 30.701L40.0812 25.7479C39.0929 24.8825 37.8203 24.4513 36.5086 24.5441C35.197 24.637 33.9932 25.2329 33.1367 26.2301L31.5196 28.0927C30.8458 28.8743 29.8037 29.2127 28.8604 28.9432C22.1824 27.0656 18.104 21.292 16.2648 18.0189C15.7049 17.0217 15.8276 15.773 16.5793 14.9225L18.1636 13.1048ZM15.8548 11.0835L14.2527 12.9162C12.6506 14.7488 12.3751 17.4081 13.5699 19.5312C15.6392 23.2176 20.2689 29.728 28.013 31.9052C30.0912 32.4891 32.3761 31.7824 33.8225 30.1024L35.4336 28.2397C35.757 27.8654 36.2092 27.6408 36.6973 27.6049C37.1884 27.575 37.6645 27.7367 38.0389 28.0571L43.6957 33.0101C44.4623 33.6779 44.5402 34.8488 43.8723 35.6094L41.0514 38.8286C39.8626 40.1851 38.1527 40.9517 36.3679 40.9278C31.9149 40.8739 24.9284 39.4095 16.9955 32.7465L13.6385 29.8028C6.08613 22.8434 3.75071 16.18 3.12132 11.8111C2.86978 10.0473 3.39683 8.25354 4.58571 6.89694L7.40663 3.67776C7.73005 3.30942 8.18221 3.08783 8.67032 3.0489C8.70925 3.0489 8.75416 3.03991 8.7931 3.03991C9.2363 3.03991 9.6675 3.20162 10.0029 3.50108L15.6746 8.46017C16.4442 9.14893 16.5226 10.3169 15.8548 11.0835Z" fill="white"/>
</svg>
