<svg width="72" height="72" viewBox="0 0 72 72" fill="none" xmlns="http://www.w3.org/2000/svg">
<path d="M67.6566 25.0334L69.5399 22.3968C71.1494 20.1437 72 17.4892 72 14.7204C72 9.1649 67.4803 4.64516 61.9248 4.64516C59.2149 4.64516 56.5651 5.15555 54.0492 6.16195L52.7693 6.67379C52.2817 6.86889 51.7681 6.96774 51.2429 6.96774C50.0197 6.96774 48.869 6.42876 48.0857 5.48898C45.1788 2.00061 40.9073 0 36.3665 0H35.6333C31.0925 0 26.821 2.00061 23.914 5.48898C23.131 6.42876 21.9803 6.96774 20.757 6.96774C20.2319 6.96774 19.7184 6.86889 19.2307 6.67379L17.9509 6.16195C15.4349 5.15555 12.7851 4.64516 10.0752 4.64516C4.51974 4.64516 0 9.1649 0 14.7204C0 17.4892 0.850645 20.1437 2.46005 22.3968L4.34337 25.0334C3.54106 25.8394 2.95635 26.8813 2.62582 28.117C1.8691 30.9461 2.56166 34.499 4.47852 37.6213C6.01795 40.1287 8.17113 42.1167 10.5413 43.2187C11.8511 43.8277 13.1496 44.1328 14.3727 44.1328C15.4912 44.1328 16.5466 43.8775 17.4889 43.3659C19.025 42.5318 20.1009 41.1043 20.6003 39.2378C21.2159 36.9363 20.8723 34.1557 19.6907 31.5177L25.1218 28.8022C25.4006 29.5667 25.5485 30.3767 25.5485 31.1949C25.5485 31.9465 25.4279 32.6893 25.1903 33.4026L24.6289 35.0864C23.6979 37.8794 23.2258 40.7883 23.2258 43.7325C23.2258 47.2265 23.8838 50.6429 25.1814 53.8869L25.5484 54.8045V72H46.4516V54.8043L46.8186 53.8868C48.1162 50.6429 48.7742 47.2263 48.7742 43.7323C48.7742 43.597 48.7732 43.4619 48.7711 43.3267H48.77C48.771 43.2859 48.7742 43.2454 48.7742 43.2044C48.7742 41.9927 48.3024 40.8535 47.4455 39.9967L46.9325 39.4839L47.4454 38.971C48.3023 38.1143 48.774 36.975 48.774 35.7634C48.774 34.1158 47.9006 32.6283 46.4805 31.8224C46.4616 31.6135 46.4515 31.4039 46.4515 31.1947C46.4515 30.3766 46.5995 29.5666 46.8782 28.8022L52.3093 31.5177C51.1277 34.1557 50.7841 36.9364 51.3997 39.2378C51.8991 41.1045 52.975 42.532 54.5111 43.3659C55.4535 43.8775 56.5087 44.1328 57.6273 44.1328C58.8503 44.1328 60.149 43.8275 61.4587 43.2187C63.8289 42.1167 65.982 40.1287 67.5215 37.6213C69.4383 34.499 70.1309 30.9461 69.374 28.117C69.0436 26.8813 68.4589 25.8394 67.6566 25.0334ZM53.4173 29.4749L47.9253 26.7288C49.8898 23.0072 50.9754 18.866 51.087 14.658L55.2546 12.5742C56.5126 11.9453 57.9207 11.6129 59.3268 11.6129C63.973 11.6129 67.8636 15.0952 68.3766 19.7128L68.392 19.8507C68.1715 20.2619 67.925 20.6618 67.6501 21.0468L65.7296 23.7355C63.8543 22.939 61.6022 23.0728 59.3154 24.1361C57.0276 25.1999 54.944 27.0901 53.4173 29.4749ZM63.163 25.5526C63.8817 25.5526 64.5574 25.7059 65.1546 26.03C66.3702 26.6899 66.9 27.8556 67.1306 28.7173C67.4353 29.8563 67.4264 31.166 67.1338 32.5202C65.8549 31.466 64.2077 30.96 62.5561 31.1216C62.1434 29.278 60.9216 27.7117 59.1931 26.8621C60.5205 26.0209 61.9072 25.5526 63.163 25.5526ZM12.6846 24.1361C10.3978 23.0728 8.14558 22.939 6.27024 23.7355L4.3499 21.0469C4.07497 20.662 3.82848 20.262 3.60798 19.8508L3.62323 19.7129C4.13637 15.0952 8.02698 11.6129 12.6732 11.6129C14.0793 11.6129 15.4874 11.9453 16.7452 12.5742L20.9128 14.658C21.0246 18.866 22.1102 23.0072 24.0746 26.7288L18.5825 29.4749C17.0559 27.0901 14.9722 25.1999 12.6846 24.1361ZM4.86944 28.7173C5.09995 27.8556 5.62979 26.6901 6.84537 26.03C7.44256 25.7057 8.118 25.5526 8.83698 25.5526C10.0926 25.5526 11.4794 26.0209 12.8067 26.8619C11.0784 27.7117 9.8566 29.2779 9.4439 31.1214C7.79211 30.9604 6.14497 31.4663 4.86624 32.52C4.5736 31.166 4.56474 29.8563 4.86944 28.7173ZM18.3564 38.6376C18.1259 39.4993 17.596 40.6648 16.3804 41.3248C15.7832 41.6491 15.1078 41.8024 14.3888 41.8022C11.7298 41.802 8.4825 39.7042 6.45764 36.4062C6.17124 35.9396 5.91837 35.4636 5.69773 34.9842C6.71603 33.6315 8.47815 33.0824 10.0844 33.6179L11.6129 34.1274V32.5161C11.6129 30.8774 12.5961 29.4254 14.1175 28.8165L14.8584 28.5203C15.5622 29.2269 16.2115 30.0421 16.7682 30.9487C18.3578 33.5382 18.9517 36.4125 18.3564 38.6376ZM27.3378 53.0241C26.1504 50.0557 25.5484 46.9295 25.5484 43.7323C25.5484 41.0383 25.9804 38.3764 26.8322 35.8207L27.3935 34.1369C27.7104 33.1863 27.871 32.1965 27.871 31.1947C27.871 29.5782 27.4471 27.9819 26.6451 26.5786L26.5298 26.3768C24.3684 22.5942 23.2258 18.2921 23.2258 13.9355V13.2178L17.7839 10.4969C16.2052 9.70752 14.4379 9.29032 12.6732 9.29032C8.16677 9.29032 4.22884 11.9016 2.37382 15.7625C2.34116 15.4177 2.32258 15.0704 2.32258 14.7204C2.32258 10.4455 5.80035 6.96774 10.0752 6.96774C12.4884 6.96774 14.8478 7.4221 17.0884 8.31832L18.3681 8.83016C19.1312 9.13558 19.935 9.29032 20.757 9.29032C22.6716 9.29032 24.4727 8.44664 25.6985 6.97587C28.1629 4.01864 31.7841 2.32258 35.6335 2.32258H36.3667C40.2161 2.32258 43.8373 4.01864 46.3017 6.97587C47.5273 8.44664 49.3284 9.29032 51.2429 9.29032C52.065 9.29032 52.8688 9.13558 53.6317 8.83031L54.9116 8.31847C57.1522 7.4221 59.5116 6.96774 61.9248 6.96774C66.1996 6.96774 69.6774 10.4455 69.6774 14.7204C69.6774 15.0704 69.659 15.4177 69.6262 15.7623C67.7712 11.9016 63.8332 9.29032 59.3268 9.29032C57.562 9.29032 55.7946 9.70752 54.216 10.4969L48.7742 13.2178V13.9355C48.7742 18.2921 47.6316 22.5942 45.4703 26.3768L45.3551 26.5786C44.8942 27.385 44.5589 28.2554 44.3565 29.1564C43.7007 28.6396 42.9381 28.2613 42.1148 28.0539C42.2608 27.6428 42.4556 27.249 42.6973 26.8863L43.7229 25.3479C45.5081 22.6703 46.4516 19.5538 46.4516 16.3356C46.4516 13.8263 45.8585 11.3139 44.7364 9.06953L44.3275 8.25184C43.9315 7.45969 43.1354 6.96774 42.2501 6.96774H29.7501C28.8646 6.96774 28.0687 7.45969 27.6727 8.25155L27.2638 9.06953C26.1415 11.3137 25.5484 13.8263 25.5484 16.3356C25.5484 19.5538 26.4919 22.6703 28.2771 25.3479L29.3027 26.8863C29.8855 27.7605 30.1935 28.7779 30.1935 29.8286C30.1935 30.6478 29.9999 31.4681 29.6337 32.2007L28.6599 34.1482C28.1439 35.1803 27.871 36.3358 27.871 37.4898C27.871 39.8292 28.9883 42.0638 30.8598 43.4675L31.8234 44.1901C32.2572 44.5154 32.5161 45.0335 32.5161 45.5757C32.5161 45.9187 32.4155 46.251 32.2254 46.5364L31.3548 47.842C30.5951 48.9815 30.1935 50.3077 30.1935 51.6774C30.1935 53.0472 30.5951 54.3734 31.3548 55.5129L32.5161 57.2548V69.6774H27.871V54.357L27.3378 53.0241ZM45.8032 41.6391C46.2212 42.0573 46.4516 42.6131 46.4516 43.2045C46.4516 44.0485 45.9827 44.8072 45.2279 45.1846L44.3408 45.6281L44.129 46.2632C43.6284 47.765 42.2283 48.7742 40.6452 48.7742C39.062 48.7742 37.6619 47.765 37.1613 46.263L36.9495 45.628L36.0624 45.1845C35.3076 44.8071 34.8387 44.0483 34.8387 43.2044C34.8387 42.6131 35.0689 42.0571 35.4871 41.6389L37.6422 39.4839L35.487 37.3287C35.0689 36.9105 34.8386 36.3546 34.8386 35.7632C34.8386 34.9193 35.3074 34.1605 36.0623 33.7831L36.9494 33.3396L37.1611 32.7045C37.6619 31.2027 39.062 30.1935 40.6452 30.1935C42.2283 30.1935 43.6284 31.2027 44.129 32.7045L44.3408 33.3396L45.2279 33.7831C45.9827 34.1605 46.4516 34.9193 46.4516 35.7632C46.4516 36.3545 46.2214 36.9105 45.8032 37.3287L43.6481 39.4839L45.8032 41.6391ZM39.4839 51.6774C39.4839 52.587 39.2172 53.4677 38.7126 54.2246L37.7011 55.7419H34.299L33.2874 54.2246C32.7828 53.4677 32.5161 52.587 32.5161 51.6774C32.5161 50.7678 32.7828 49.8871 33.2874 49.1303L34.1579 47.8245C34.3304 47.566 34.4703 47.2906 34.5784 47.0041C34.7214 47.0967 34.8689 47.1842 35.0239 47.2618L35.0601 47.2799C35.8045 49.192 37.4612 50.5662 39.4296 50.9721C39.4656 51.2051 39.4839 51.4407 39.4839 51.6774ZM34.8387 58.0645H37.1613V60.3871H34.8387V58.0645ZM34.8387 62.7097H37.1613V65.0323H34.8387V62.7097ZM34.8387 67.3548H37.1613V69.6774H34.8387V67.3548ZM31.2352 25.598L30.2097 24.0596C28.6797 21.7646 27.871 19.0938 27.871 16.3356C27.871 14.1852 28.3793 12.0317 29.341 10.1083L29.7499 9.29032H42.2499L42.6588 10.1082C43.6207 12.0317 44.129 14.185 44.129 16.3356C44.129 19.0938 43.3203 21.7648 41.7903 24.0596L40.7648 25.598C40.2886 26.3122 39.9369 27.1096 39.7235 27.9418C37.6268 28.266 35.8409 29.6814 35.0596 31.688L35.0236 31.7061C33.477 32.4793 32.5161 34.0341 32.5161 35.7634C32.5161 36.975 32.9879 38.1143 33.8448 38.971L34.3576 39.4839L33.8448 39.9967C33.2948 40.5466 32.9044 41.2133 32.6947 41.9404L32.2532 41.6095C30.9635 40.6421 30.1935 39.1021 30.1935 37.4898C30.1935 36.6945 30.3815 35.8982 30.7372 35.187L31.7109 33.2393C32.2377 32.1859 32.5161 31.0065 32.5161 29.8285C32.5161 28.3179 32.0732 26.855 31.2352 25.598ZM44.129 54.357V69.6774H39.4839V57.2548L40.6452 55.5129C41.4049 54.3734 41.8064 53.0472 41.8064 51.6774C41.8064 51.4475 41.7938 51.2184 41.771 50.9907C43.7384 50.6163 45.4053 49.276 46.1826 47.3962C45.8988 49.3183 45.3914 51.201 44.6621 53.0241L44.129 54.357ZM55.6196 41.3248C54.404 40.6649 53.8741 39.4993 53.6436 38.6376C53.0483 36.4125 53.6422 33.5382 55.2318 30.9487C55.7885 30.042 56.4378 29.2268 57.1416 28.5201L57.8825 28.8165C59.4039 29.4254 60.3871 30.8774 60.3871 32.5161V34.1273L61.9156 33.6178C63.5226 33.0823 65.2841 33.6314 66.3023 34.9842C66.0816 35.4638 65.8289 35.9396 65.5425 36.4062C62.97 40.596 58.4258 42.8486 55.6196 41.3248Z" fill="url(#paint0_linear_1_440)"/>
<defs>
<linearGradient id="paint0_linear_1_440" x1="36" y1="0" x2="36" y2="72" gradientUnits="userSpaceOnUse">
<stop stop-color="#A953DC"/>
<stop offset="1" stop-color="#ED95B4"/>
</linearGradient>
</defs>
</svg>
