<svg width="79" height="72" viewBox="0 0 79 72" fill="none" xmlns="http://www.w3.org/2000/svg">
<path d="M45.9923 28.5028C44.6832 31.1014 43.2 34.0442 43.2 39.2727V70.6909C43.2 71.4148 42.6148 72 41.8909 72C41.167 72 40.5818 71.4148 40.5818 70.6909V39.2727C40.5818 33.4224 42.2849 30.0423 43.6543 27.3273C44.8639 24.9264 45.8182 23.0321 45.8182 18.3273C45.8182 14.7181 42.8819 11.7818 39.2727 11.7818C38.359 11.7831 37.4832 11.9664 36.6624 12.3251C36.5603 12.3709 36.4529 12.4233 36.3456 12.4796C35.7434 12.7859 35.2067 13.1655 34.7367 13.6145C33.4512 14.8503 32.7364 16.5142 32.7273 18.2959C32.7273 23.0361 33.6816 24.929 34.8886 27.326C36.0314 29.5946 37.3261 32.1631 37.7895 36.1964C37.9047 37.0695 37.9636 38.1116 37.9636 39.2727V70.6909C37.9636 71.4148 37.3772 72 36.6545 72C35.9319 72 35.3455 71.4148 35.3455 70.6909V39.2727C35.3455 38.2255 35.2931 37.2973 35.191 36.5145C34.7786 32.9236 33.6463 30.6772 32.5505 28.5041C31.2951 26.0103 30.1091 23.6566 30.1091 18.3273C30.1209 15.7876 31.121 13.4575 32.9249 11.7242C33.5821 11.0959 34.3283 10.5683 35.1452 10.152C35.2879 10.0774 35.4449 10.0001 35.6047 9.92945C36.7658 9.42284 37.9911 9.16625 39.257 9.16364C44.3245 9.16364 48.4364 13.2742 48.4364 18.3273C48.4364 23.654 47.2503 26.0103 45.9923 28.5028ZM60.6541 41.8006C60.2993 41.8543 59.9394 41.8909 59.5702 41.8909C59.4589 41.8909 59.3489 41.8791 59.239 41.8739C59.1303 41.8752 59.0256 41.8909 58.917 41.8909V41.8582C55.2528 41.527 52.3702 38.4401 52.3702 34.6909C52.3702 30.7204 55.601 27.4909 59.5702 27.4909C63.5393 27.4909 66.7702 30.7204 66.7702 34.6909C66.7702 35.7133 66.5529 36.6833 66.1667 37.5657C71.9817 34.6817 75.9351 28.4099 75.9351 20.9455C75.9351 10.8393 68.0073 2.61818 58.2624 2.61818C54.3024 2.61818 50.5152 3.97571 47.431 6.47084C51.1972 9.072 53.6727 13.4156 53.6727 18.3247C53.6727 24.8963 52.0756 28.0643 50.6749 30.8657C49.4705 33.2352 48.4364 35.2905 48.4364 39.2701V70.6883C48.4364 71.4083 47.8473 71.9974 47.1273 71.9974C46.4073 71.9974 45.8182 71.4083 45.8182 70.6883V39.2701C45.8182 34.6621 47.1011 32.1356 48.3316 29.6876C49.6669 27.0301 51.0545 24.281 51.0545 18.3247C51.0545 11.8316 45.7658 6.54284 39.2727 6.54284C37.3876 6.54284 35.5418 6.98793 33.9185 7.83884C29.952 9.85484 27.4909 13.8737 27.4909 18.3247C27.4909 24.281 28.8785 27.0301 30.2138 29.6876C31.2087 31.6512 32.2298 33.6803 32.5833 36.7959C32.6749 37.5028 32.7273 38.3276 32.7273 39.2701V70.6883C32.7273 71.4083 32.1382 71.9974 31.4182 71.9974C30.6982 71.9974 30.1091 71.4083 30.1091 70.6883V39.2701C30.1091 38.4454 30.0698 37.7385 29.9913 37.1101C29.6771 34.4527 28.8393 32.7901 27.8705 30.8657C26.4698 28.0643 24.8727 24.8963 24.8727 18.3247C24.8727 13.5229 27.2304 9.12698 31.121 6.47084C28.0368 3.97571 24.2496 2.61818 20.2909 2.61818C10.546 2.61818 2.61818 10.8393 2.61818 20.9455C2.61818 28.4086 6.57033 34.6804 12.3853 37.5644C11.9991 36.6833 11.7818 35.712 11.7818 34.6909C11.7818 30.7204 15.0113 27.4909 18.9818 27.4909C22.9523 27.4909 26.1818 30.7204 26.1818 34.6909C26.1818 38.4401 23.3005 41.5257 19.6364 41.8582V41.8909C19.5277 41.8909 19.423 41.8765 19.3143 41.8739C19.2031 41.8791 19.0944 41.8909 18.9831 41.8909C18.614 41.8909 18.254 41.8543 17.8992 41.8006C7.7328 40.8881 0 32.0636 0 20.9455C0 9.39666 9.10211 0 20.2909 0C25.2052 0 29.8735 1.83142 33.5572 5.13818C35.3297 4.35927 37.2803 3.92465 39.2727 3.92465C41.3136 3.92465 43.2524 4.35665 45.0118 5.12509C48.6916 1.82618 53.3546 0 58.2624 0C69.4512 0 78.5533 9.39666 78.5533 20.9455C78.5533 32.0636 70.8192 40.8895 60.6541 41.8006ZM18.271 39.2007C18.5799 39.2256 18.8915 39.2413 19.2057 39.2505C21.6262 39.13 23.5636 37.1402 23.5636 34.6909C23.5636 32.1644 21.5084 30.1091 18.9818 30.1091C16.4553 30.1091 14.4 32.1644 14.4 34.6909C14.4 36.974 16.0835 38.8564 18.271 39.2007ZM59.3463 39.2505C59.6605 39.2426 59.9721 39.2269 60.281 39.2007C62.4685 38.8564 64.152 36.974 64.152 34.6909C64.152 32.1644 62.0967 30.1091 59.5702 30.1091C57.0436 30.1091 54.9884 32.1644 54.9884 34.6909C54.9884 37.1402 56.9258 39.13 59.3463 39.2505Z" fill="url(#paint0_linear_1_537)"/>
<defs>
<linearGradient id="paint0_linear_1_537" x1="39.2767" y1="0" x2="39.2767" y2="72" gradientUnits="userSpaceOnUse">
<stop stop-color="#A953DC"/>
<stop offset="1" stop-color="#ED95B4"/>
</linearGradient>
</defs>
</svg>
