<svg width="56" height="56" viewBox="0 0 56 56" fill="none" xmlns="http://www.w3.org/2000/svg">
<path d="M27.6362 0.149658C25.8436 0.149658 24.051 0.299052 22.3331 0.672514C22.7065 1.27005 23.7522 2.39044 25.7689 3.28675C26.5159 3.21206 27.1881 3.21205 27.935 3.21205C40.8568 3.21205 51.3137 13.669 51.3137 26.5908C51.3137 39.5126 40.8568 49.9695 27.935 49.9695C27.3375 49.9695 26.6652 49.9695 26.0677 49.8948C27.3375 48.401 29.2048 46.6084 32.0431 44.4423C41.529 37.1224 41.6037 30.6989 40.1846 25.9186C38.7654 21.0635 31.819 16.5073 31.819 16.5073C36.5993 10.2331 32.9394 8.51522 27.0387 5.82629C22.5571 3.7349 22.0343 1.64351 22.0343 0.7472C9.56066 3.36144 0.149414 14.4159 0.149414 27.6365C0.149414 41.3052 10.0835 52.5838 23.1547 54.7498C22.2584 54.1523 20.167 52.3597 20.6898 48.8491C11.3533 45.7867 4.55626 36.973 4.55626 26.5908C4.55626 15.6857 12.0255 6.49852 22.109 3.95898C24.051 6.87198 30.1011 8.58991 30.7733 11.5029C31.2962 13.7437 28.0844 17.3289 28.0844 17.3289C28.0844 17.3289 35.703 25.0969 36.2259 30.176C36.7487 35.2551 33.4622 39.8114 26.8893 45.2639C21.138 50.0442 22.8559 53.8535 23.3788 54.7498C24.7232 54.9739 26.1424 55.0486 27.5615 55.0486C42.7241 55.0486 55.0484 42.7244 55.0484 27.5618C55.0484 12.3992 42.7988 0.149658 27.6362 0.149658Z" fill="url(#paint0_linear_1_376)"/>
<defs>
<linearGradient id="paint0_linear_1_376" x1="0.159647" y1="27.5908" x2="55.095" y2="27.5908" gradientUnits="userSpaceOnUse">
<stop stop-color="#A953DC"/>
<stop offset="1" stop-color="#ED95B4"/>
</linearGradient>
</defs>
</svg>
